<?xml version="1.0" encoding="utf-8"?>
<!-- Generator: Adobe Illustrator 28.2.0, SVG Export Plug-In . SVG Version: 6.00 Build 0)  -->
<svg version="1.1" id="Layer_1" xmlns="http://www.w3.org/2000/svg" xmlns:xlink="http://www.w3.org/1999/xlink" x="0px" y="0px"
	 viewBox="0 0 7650 5925" style="enable-background:new 0 0 7650 5925;" xml:space="preserve">
<style type="text/css">
	.st0{fill:#50C3CC;}
	.st1{fill:#C6A312;}
</style>
<image style="overflow:visible;" width="7650" height="5925" xlink:href="large-prototype-box.png" >
</image>
<g>
	<path d="M7251.8,3832.2c-0.2,0.2-0.4,0.3-0.7,0.5c21.5,28.6,18.3,70.3-25.9,65.8c26,17.1,62,77.2,7,78.2
		c40,31.2,32.4,69.4-21.6,67.3c35,17.3,75.7,71.1,23.3,93.4c14,4.7,31.7,15.6,28.2,32.8c-2.1,9.2-11.4,18.6-21.5,16.2
		c-10.7-2.6-9.5-17.9-0.9-21.9c-12.9-9.6-29.9-11.1-44.6-16.9c-21.7-8.2-42.6-19.9-60.2-35c-14.7-11.3-5.9-39,13.5-36.3
		c10.2,1.1,12.5,15.9,3.7,20.6c18.2,17.6,46,20.7,70.2,20.7c34.4-4.9,1.4-41.9-14.7-50c-33.5-23.4-73.5-34.3-113.2-41.9
		c-12-3-24.8-4.2-36.1-9.5c-6.6-3.5-9.4-13.1-3.7-18.6c6.1-6.2,15-3,22.3-1.1c32.7,7.9,132,38.5,159.1,20.5
		c-6.9-24.8-37.7-36.7-59.6-45.7c-11.6-6.1-44.2-4.8-42.7-21.6c2.9-14.8,19.4-7.4,29.1-5.1c25.1,5.1,51.1,12,76.8,9.9
		c-4.8-26.4-32.9-44.4-54.9-55.7c-11.1-5-22.3-9.2-33.4-13.1c-8.4-2.7-21.9-5.5-18.9-17.2c5.2-14.6,22.5-4.7,32.8-2.6
		c24.4,4.9,51.1,15.3,75.7,9.2c5.9-11.8-4.8-26.3-11.8-35.7c-34.4,0.3-78.5-6.3-97.7-38.3c-5.7-10.4,1.2-23.3,13.3-23.5
		c34.9-2.1,68.2,13.6,92.2,38.3c25.1-19.9-25.8-67.8-46-75.2c-17.5-7.8-35.5-17.4-43.7-35.8c-7.5-13-13.9-31.9,0.4-42.8
		c-17.7-3.1-136-22.8-129.6-43.4c0.7-5,5.4-9.6,10.7-9.3c23,1.9,45,5.5,66.7,12c41.5,10.7,83.8,32.1,127.3,24.8
		c-12.5-75.9-123.5-59.6-102.5-91.4c-41.1-29.5,6.1-72.4,43.4-60.8c-13.6-24.3-39.3-42.3-44.7-70.7c-2.5-13.3-10.4-49.3,13.8-41.5
		c4.8,2.8,6.4,8.6,4.4,13.5c-3.7,44,40.9,66.6,52.6,105.2c43.4,11.3,96.3,75.4,27,92c19.2,17.8,46.9,67.7,6.5,76
		c25.6,14.3,51.1,65.6,7.9,73.4C7254.5,3762.9,7282.6,3806.3,7251.8,3832.2z M7233.4,3715.3c-5.5-23.2-30-35-50.4-43
		c-4.1,6.2-13.3,7.5-17.6,13.5c0.1-0.1,0.2-0.3,0.3-0.4c0.1-0.1,0.2-0.2,0.3-0.4C7154.4,3699.6,7233.3,3734.6,7233.4,3715.3z
		 M7228.8,3561.6c-2.4-18.5-21.9-29.6-37.2-37.3c-2.3,16.3-13.4,31.1-28.9,36.7C7180.7,3565.1,7216.9,3581.9,7228.8,3561.6z
		 M7204.8,3816.6c-13.6-10.3-30.2-16.1-47.2-17.3C7171,3809.9,7188.3,3814.1,7204.8,3816.6z M7170.7,3517.3
		c-15.6-4.1-36.7-6.9-44.9,10.6c0-0.2,0-0.3,0-0.4c0-0.3-0.1-0.7-0.1-1c0.1,7.1,7.1,11.4,13.1,13.6
		C7154.5,3547,7171.1,3533.9,7170.7,3517.3z"/>
	<g>
		<path class="st0" d="M7344.2,4145.3c-3.4,2.3-7.9,1.3-11.8,1.7c-9.9,0.2-19.7,2.3-29.7,1.9c-4.3,0.2-7.4-4.5-4.2-8
			c5.7-4.3,12.7-6.7,18.7-10.4c-5.5-2.6-27.3-2.2-20.5-12.4c3.2-2.6,8-3,11.8-4.1c6.4-1.3,12.7-2.5,19-3.7c3.3-0.7,6.8-1.2,10-2.3
			c2.3-0.8,4.9,0.9,5.5,3.1c1.3,5.7-5.6,6.2-9.5,7.1c-5.2,1.1-10.4,2.1-15.6,3.1c7.5,1.3,15.3,8.6,7.1,14.8
			c5.8,0.3,11.8,0.3,17.5,1.2C7346.2,4138.2,7347.2,4143.2,7344.2,4145.3z"/>
		<path class="st0" d="M7343.8,4077.1c-12.9,3.8-26.9,2.9-39.8,6.7c10.8,1.9,21.5,2.2,32.3,3.1c5.1,0.6,5.1,8.4,0,8.9
			c-12,0.4-24-0.3-36,0.4c-3.3,0.4-6.2-3.1-4.7-6.2c-3.8-3.1-2.9-9,0.6-11.8c9.6-7.1,22.6-5,33.8-7.4c4.8,0,13.6-5.1,16.2,0.6
			C7347.1,4073.5,7346,4076.1,7343.8,4077.1z"/>
		<path class="st0" d="M7329.6,4093.3c0.1,0,0.1-0.1,0.2-0.1c0.1-0.1,0.3-0.2,0.4-0.3c-9.7,7.1-11.1-13.6-13.6-19.2
			c-0.7-2.4,0.8-4.9,3.1-5.6c2.4-0.6,4.9,0.8,5.6,3.2c1.3,4.6,2.6,9.3,4.1,13.9C7332.8,4086.7,7332.9,4091.7,7329.6,4093.3z"/>
		<path class="st0" d="M7342.1,4048.4c-5.7,0-11.5-0.5-17.2-1c1.9,3.5-0.9,7.1-4.1,8.5c-5.1,2.8-10.6,5.9-15,9.3
			c-4,5.1-11.6-1.2-7-5.9c0.3-2.2,2.2-3.9,4.5-3.9c0.2,0,0.4,0,0.5,0c1.3-0.9,2.6-1.7,4-2.5c1.8-1.1,3.6-2.1,5.4-3.1
			c-5-2-10.4-3.2-15.5-4.2c-1.9-0.1-3.7-0.5-4.7-2.3c-1.8-2.9,0.5-6.8,3.9-6.8c6.1,0.2,12.2,0.1,18.3,0.8c8.9,0.8,17.9,2.1,26.9,2
			C7348,4039.5,7348.1,4048.2,7342.1,4048.4z"/>
		<path class="st0" d="M7341.7,3995.5c-8.1,1.2-16.1,2.4-24.3,2.4c4.2,5.4,6.9,13.2,14.3,14.7c3.5,0.6,7.4-1.5,10.6,0.7
			c3.1,2.2,1.7,7.7-2.1,8c-1.7,0.1-3.5,0.2-5.2,0.3c-11.6,0.3-23.3,0.5-34.9,1.4c-2.6-0.3-4.6-3.2-3.8-5.8c1.3-4.4,6.9-3.6,10.5-3.8
			c3.4,0,6.7-0.4,10.1-0.4c-4.2-4.9-6.3-12.9-13.8-13.5c-2.2-0.4-4.4-0.9-6.7-1.2c-4.4-0.4-5.3-7.1-1.1-8.6
			c14.9-1.8,30.3,0,45.2-3.2C7346.3,3985.8,7347.6,3994.6,7341.7,3995.5z"/>
		<path class="st0" d="M7347.3,3958.5c-0.6,10.8-9.4,11.6-18.2,11.4c-7.5,0.3-14.7,0.6-22,1.1c-3.8,2.2-9.5,3.2-13.1,0.1
			c-2.5-2.2-1.2-6.5,1.7-7.6c4.4-1.4,9.3-1.2,13.8-1.6c-0.1,0-0.1,0-0.2,0c8.7-0.6,17.4-0.8,26.1-1.2c0.7-0.1,1.6,0,2.2-0.4
			c0.4-0.6,0.6-1.5,0.7-2.1c0,0,0,0.1,0,0.1c0,0.1-0.1,0.3-0.1,0.4c0.5-2.4-0.5-4.7-1.6-6.7c-1.1-2.2,0.2-5,2.4-5.9
			C7345.6,3943.9,7347.6,3953.7,7347.3,3958.5z"/>
		<path class="st0" d="M7323.6,3969.2c-8.1,5.5-9.7-7.9-11.4-13.1c-0.7-2.4,0.8-4.9,3.2-5.6c6.5-1.3,6.1,7.4,8,11.5
			C7325.7,3963.7,7325.7,3967.3,7323.6,3969.2z"/>
		<path class="st0" d="M7300.2,3967c-1.6,6.1-8.9,4.6-9.9-1.1c-0.7-4.9-6-15.5,1.4-17c7-0.3,5.1,9,7,13.4
			C7300,3963.4,7300.6,3965.3,7300.2,3967z"/>
		<path class="st0" d="M7341.9,3899.3c-9.2,1.6-17.6,4-26.9,4.6c6.2,2.1,15.1,7.6,11.3,15.2c-3.1,5-9.6,5.8-14.7,7.9
			c5.9-0.3,11.7-0.5,17.6-0.4c3.8,0.3,9.4-0.9,11.4,3.2c1.5,3.3-1.6,6.6-4.9,6.7c-10.1,1.2-20.3,1.6-30.4,1.7
			c-3.1-0.3-7,1.2-9.5-1.1c-4.4,0.6-8-4.5-4.6-7.9c7.1-7.3,17-10.4,26.3-13.9c-7.6-4.9-16.6-5.7-25-8.3c-2.7-1.1-3.6-4.8-1.8-7.1
			c7.7-6.5,19.2-3.5,28.5-5.4c7.4-0.9,14.4-2.9,21.5-4.1C7346.5,3889.7,7347.8,3898.3,7341.9,3899.3z"/>
		<path class="st0" d="M7338.7,3843.6c-1.1,1.9-3.3,2.6-5.3,2c-6.8,1.5-13.6,3-20.4,4.3c-4.6,0.4-11.2,3.6-14.5-1
			c-2.7-4.4,4.6-11.6,8.6-7.1c8.5-1.5,16.2-3.4,24.6-5.1C7335.9,3835.2,7341.2,3839.2,7338.7,3843.6z"/>
		<path class="st0" d="M7301.9,3862.4c-7.5,0.3-5.6-10.5-6.8-15.4c0-5.4-3.9-21.9,4.8-21.3c6.3,1.3,2.7,8.8,3.6,13.2
			c0.5,5.7,0.9,11.4,1.9,17C7306.7,3858.6,7304.8,3862,7301.9,3862.4z"/>
		<path class="st0" d="M7345.5,3858c-2.5,7.6-13.4,2.1-8.4-4.2c0.2-9.6-1.1-19.2-2.2-28.7c-0.3-2.4,1.4-4.8,3.8-5.1
			c2.4-0.3,4.7,1.4,5.1,3.9C7344.8,3835.1,7347.4,3846.8,7345.5,3858z"/>
		<path class="st0" d="M7342,3781.4c-1.5,3-4.8,4.6-7.4,6.5c-8.8,6.3-17.9,12-26.7,18.3c6.8-0.4,13.5-0.8,20.3-0.9
			c3.4,0.1,7.6-0.3,10.1,2.5c2.1,2,1.6,5.7-0.9,7.1c-5,2.5-11.2,1.3-16.7,1.6c-4.6,0-9.3-0.3-13.3-0.1c-1.7,0.1-3.5,0.2-5-0.7
			c0,0,0,0,0,0c-2.1,0.1-4.6,0.7-6.7,0c-2.5-0.7-4.1-3.7-3-6.1c3.2-6.1,9.1-10.2,14.7-14c7.8-5.1,15.5-10.4,23.1-15.7
			c-9.1,0.3-18,3.1-27.1,3.9c-2.6,0.4-5.2-1.8-5.1-4.5c-0.1-3.3,3.6-6.2,6.7-4.8C7314.3,3774,7345.8,3763.3,7342,3781.4z"/>
		<path class="st0" d="M7345,3737.2c-5.9,1.5-40.1,8.3-41.5,1.4c-2.5-0.1-5.3,0.6-7.6-0.8c-3.1-1.8-2.9-6.7,0.5-8
			c10-4.2,19.2-10.1,28.7-15.4c-7.8-2.9-16-4.5-24-6.4c-2.8-0.2-5.5-2.3-5-5.4c0.3-2.1,2.3-4,4.5-3.9c5.8,0,11.4-2.2,17.1-2.5
			c6.9-0.9,14.3-0.5,20.8-3.4c6.7-8.7,20.3,10.6-13.9,11.8c6.4,1.4,16,7.3,9.4,14.4c-5,4.3-11.3,7.1-17,10.4
			c9.4,0.1,18.8-1.7,28-0.8C7349.4,3729.6,7349.3,3736.1,7345,3737.2z"/>
		<path class="st0" d="M7350.5,3670.9c-1.2,4.6-5.7,19-12.3,15.3c-2-1.2-3-4.1-1.6-6.2c2.5-4.2,5.8-8.9,5.2-14.1
			c-11.1,3.7-24.5,19.2-36.6,12.7c-4.4-3.5-8.1-8.8-7.3-14.6c0.6-4.9,5.8-5.9,9.6-4.7c2.8-0.2,5.7,0.8,6.1,3.9
			c0.5,3.3-2.6,5.7-5.8,5.1c0.7,1.1,1.6,2.1,2.6,2.9c12.2-1.4,20.6-14,32.9-14.5C7349.9,3657.8,7351.9,3665.3,7350.5,3670.9z"/>
		<path class="st0" d="M7344.3,3626.4c-13.3,0.4-29-3.2-40.2,5.8c9.4,4,19.6,3.9,29.6,3.9c4.4,0.4,12.5-2.1,13,4.5
			c0,2.5-2.1,4.4-4.5,4.5c-5.8,0.1-11.6,0.2-17.3,0.1c-3.9,0-7.9,0-11.8,0.1c-3.8,0.1-9.8,1.3-10.5-3.9c-7-1.9-10.8-9.6-5.1-15.2
			c4.4-4.3,10.3-6.7,16.2-7.9c9.5-2,19.3-1.1,28.9-0.8c2.6-0.3,5.3,1.1,5.7,3.9C7348.5,3623.6,7346.7,3626.1,7344.3,3626.4z"/>
		<path class="st0" d="M7330.8,3642.9c-1.5,5.3-9.4,3.7-8.8-1.8c0.5-4.7-0.4-9.4-0.9-14.1c-0.3-2.4,1.4-4.7,3.9-5.1
			c2.4-0.3,4.8,1.4,5.1,3.9C7330.5,3631.5,7331.9,3637.3,7330.8,3642.9z"/>
		<path class="st0" d="M7337,3592.3c-9.5,0.3-17.8,0.5-26.9,1.9c-2.8,1.2-5.8,1.7-8.9,2c-5.5,0.7-7.1-7.3-1.8-8.8
			c7.9-2.2,16.2-3.2,24.1-3.6c4.5-0.3,9-0.3,13.4-0.5c2.5-0.1,4.6,2.1,4.6,4.5C7341.5,3590.3,7339.5,3592.2,7337,3592.3z"/>
		<path class="st0" d="M7307.2,3604.1c-0.9,6.2-9.2,5.5-9.6-0.6c-0.6-5.7-6.1-26.9,3.5-26.1c3.4,0.4,4.4,4.1,3.7,6.8
			C7304.3,3591,7305.9,3597.7,7307.2,3604.1z"/>
		<path class="st0" d="M7351.1,3599.9c-0.1,2-1.3,3.8-3.3,4.4c-5.1,1.3-6.3-4.7-6.9-8.4c-1.3-5.8-2.3-11.7-2.9-17.6
			c-0.7-5.8,8.1-7.1,8.9-1.2C7347.7,3584.8,7349.3,3592.5,7351.1,3599.9z"/>
		<path class="st0" d="M7343,3546.1c-10.5,1-21.1,0.4-31.5,2.6c-3.6,0.6-7.9,2.6-11-0.4c-2.5-2.5-1.1-6.7,2-7.7
			c2.4-1.7,5.4-3.6,7.9-0.9c10.2-2.1,21-1.7,31.3-2.6C7347.6,3536.4,7348.8,3545.2,7343,3546.1z"/>
		<path class="st0" d="M7304.3,3559.2c-8.3,2.5-7.5-7.9-6.8-13.1c0.2-4,0.4-7.9,0.6-11.8c0.2-5.9,8.9-5.9,9,0
			c-0.2,5.8-0.6,11.6-1,17.3C7308.7,3553.7,7307.6,3558.3,7304.3,3559.2z"/>
		<path class="st0" d="M7355.5,3555.7c-3.9,4-10.9-2-7.7-6.5c-0.9-8-1.6-15.9-2.4-23.9c-0.6-1.5-0.4-3.3,0.7-4.6
			c2.1-2.8,7.1-2,7.9,1.6c1.3,8.7,1.6,17.5,2.8,26.2C7357,3550.8,7357.4,3553.9,7355.5,3555.7z"/>
	</g>
</g>
<g>
	<path d="M7251.8,2355.4c-0.2,0.2-0.4,0.3-0.7,0.5c21.5,28.6,18.3,70.3-25.9,65.8c26,17.1,62,77.2,7,78.2
		c40,31.2,32.4,69.4-21.6,67.3c35,17.3,75.7,71.1,23.3,93.4c14,4.7,31.7,15.6,28.2,32.8c-2.1,9.2-11.4,18.6-21.5,16.2
		c-10.7-2.6-9.5-17.9-0.9-21.9c-12.9-9.6-29.9-11.1-44.6-16.9c-21.7-8.2-42.6-19.9-60.2-35c-14.7-11.3-5.9-39,13.5-36.3
		c10.2,1.1,12.5,15.9,3.7,20.6c18.2,17.6,46,20.7,70.2,20.7c34.4-4.9,1.4-41.9-14.7-50c-33.5-23.4-73.5-34.3-113.2-41.9
		c-12-3-24.8-4.2-36.1-9.5c-6.6-3.5-9.4-13.1-3.7-18.6c6.1-6.2,15-3,22.3-1.1c32.7,7.9,132,38.5,159.1,20.5
		c-6.9-24.8-37.7-36.7-59.6-45.7c-11.6-6.1-44.2-4.8-42.7-21.6c2.9-14.8,19.4-7.4,29.1-5.1c25.1,5.1,51.1,12,76.8,9.9
		c-4.8-26.4-32.9-44.4-54.9-55.7c-11.1-5-22.3-9.2-33.4-13.1c-8.4-2.7-21.9-5.5-18.9-17.2c5.2-14.6,22.5-4.7,32.8-2.6
		c24.4,4.9,51.1,15.3,75.7,9.2c5.9-11.8-4.8-26.3-11.8-35.7c-34.4,0.3-78.5-6.3-97.7-38.3c-5.7-10.4,1.2-23.3,13.3-23.5
		c34.9-2.1,68.2,13.6,92.2,38.3c25.1-19.9-25.8-67.8-46-75.2c-17.5-7.8-35.5-17.4-43.7-35.8c-7.5-13-13.9-31.9,0.4-42.8
		c-17.7-3.1-136-22.8-129.6-43.4c0.7-5,5.4-9.6,10.7-9.3c23,1.9,45,5.5,66.7,12c41.5,10.7,83.8,32.1,127.3,24.8
		c-12.5-75.9-123.5-59.6-102.5-91.4c-41.1-29.5,6.1-72.4,43.4-60.8c-13.6-24.3-39.3-42.3-44.7-70.7c-2.5-13.3-10.4-49.3,13.8-41.5
		c4.8,2.8,6.4,8.6,4.4,13.5c-3.7,44,40.9,66.6,52.6,105.2c43.4,11.3,96.3,75.4,27,92c19.2,17.8,46.9,67.7,6.5,76
		c25.6,14.3,51.1,65.6,7.9,73.4C7254.5,2286.1,7282.6,2329.5,7251.8,2355.4z M7233.4,2238.5c-5.5-23.2-30-35-50.4-43
		c-4.1,6.2-13.3,7.5-17.6,13.5c0.1-0.1,0.2-0.3,0.3-0.4c0.1-0.1,0.2-0.2,0.3-0.4C7154.4,2222.8,7233.3,2257.8,7233.4,2238.5z
		 M7228.8,2084.8c-2.4-18.5-21.9-29.6-37.2-37.3c-2.3,16.3-13.4,31.1-28.9,36.7C7180.7,2088.3,7216.9,2105.1,7228.8,2084.8z
		 M7204.8,2339.8c-13.6-10.3-30.2-16.1-47.2-17.3C7171,2333.1,7188.3,2337.3,7204.8,2339.8z M7170.7,2040.5
		c-15.6-4.1-36.7-6.9-44.9,10.6c0-0.2,0-0.3,0-0.4c0-0.3-0.1-0.7-0.1-1c0.1,7.1,7.1,11.4,13.1,13.6
		C7154.5,2070.2,7171.1,2057.1,7170.7,2040.5z"/>
	<g>
		<path class="st0" d="M7344.2,2668.5c-3.4,2.3-7.9,1.3-11.8,1.7c-9.9,0.2-19.7,2.3-29.7,1.9c-4.3,0.2-7.4-4.5-4.2-8
			c5.7-4.3,12.7-6.7,18.7-10.4c-5.5-2.6-27.3-2.2-20.5-12.4c3.2-2.6,8-3,11.8-4.1c6.4-1.3,12.7-2.5,19-3.7c3.3-0.7,6.8-1.2,10-2.3
			c2.3-0.8,4.9,0.9,5.5,3.1c1.3,5.7-5.6,6.2-9.5,7.1c-5.2,1.1-10.4,2.1-15.6,3.1c7.5,1.3,15.3,8.6,7.1,14.8
			c5.8,0.3,11.8,0.3,17.5,1.2C7346.2,2661.4,7347.2,2666.4,7344.2,2668.5z"/>
		<path class="st0" d="M7343.8,2600.3c-12.9,3.8-26.9,2.9-39.8,6.7c10.8,1.9,21.5,2.2,32.3,3.1c5.1,0.6,5.1,8.4,0,8.9
			c-12,0.4-24-0.3-36,0.4c-3.3,0.4-6.2-3.1-4.7-6.2c-3.8-3.1-2.9-9,0.6-11.8c9.6-7.1,22.6-5,33.8-7.4c4.8,0,13.6-5.1,16.2,0.6
			C7347.1,2596.7,7346,2599.3,7343.8,2600.3z"/>
		<path class="st0" d="M7329.6,2616.5c0.1,0,0.1-0.1,0.2-0.1c0.1-0.1,0.3-0.2,0.4-0.3c-9.7,7.1-11.1-13.6-13.6-19.2
			c-0.7-2.4,0.8-4.9,3.1-5.6c2.4-0.6,4.9,0.8,5.6,3.2c1.3,4.6,2.6,9.3,4.1,13.9C7332.8,2609.9,7332.9,2614.9,7329.6,2616.5z"/>
		<path class="st0" d="M7342.1,2571.6c-5.7,0-11.5-0.5-17.2-1c1.9,3.5-0.9,7.1-4.1,8.5c-5.1,2.8-10.6,5.9-15,9.3
			c-4,5.1-11.6-1.2-7-5.9c0.3-2.2,2.2-3.9,4.5-3.9c0.2,0,0.4,0,0.5,0c1.3-0.9,2.6-1.7,4-2.5c1.8-1.1,3.6-2.1,5.4-3.1
			c-5-2-10.4-3.2-15.5-4.2c-1.9-0.1-3.7-0.5-4.7-2.3c-1.8-2.9,0.5-6.8,3.9-6.8c6.1,0.2,12.2,0.1,18.3,0.8c8.9,0.8,17.9,2.1,26.9,2
			C7348,2562.7,7348.1,2571.4,7342.1,2571.6z"/>
		<path class="st0" d="M7341.7,2518.7c-8.1,1.2-16.1,2.4-24.3,2.4c4.2,5.4,6.9,13.2,14.3,14.7c3.5,0.6,7.4-1.5,10.6,0.7
			c3.1,2.2,1.7,7.7-2.1,8c-1.7,0.1-3.5,0.2-5.2,0.3c-11.6,0.3-23.3,0.5-34.9,1.4c-2.6-0.3-4.6-3.2-3.8-5.8c1.3-4.4,6.9-3.6,10.5-3.8
			c3.4,0,6.7-0.4,10.1-0.4c-4.2-4.9-6.3-12.9-13.8-13.5c-2.2-0.4-4.4-0.9-6.7-1.2c-4.4-0.4-5.3-7.1-1.1-8.6
			c14.9-1.8,30.3,0,45.2-3.2C7346.3,2509,7347.6,2517.8,7341.7,2518.7z"/>
		<path class="st0" d="M7347.3,2481.7c-0.6,10.8-9.4,11.6-18.2,11.4c-7.5,0.3-14.7,0.6-22,1.1c-3.8,2.2-9.5,3.2-13.1,0.1
			c-2.5-2.2-1.2-6.5,1.7-7.6c4.4-1.4,9.3-1.2,13.8-1.6c-0.1,0-0.1,0-0.2,0c8.7-0.6,17.4-0.8,26.1-1.2c0.7-0.1,1.6,0,2.2-0.4
			c0.4-0.6,0.6-1.5,0.7-2.1c0,0,0,0.1,0,0.1c0,0.1-0.1,0.3-0.1,0.4c0.5-2.4-0.5-4.7-1.6-6.7c-1.1-2.2,0.2-5,2.4-5.9
			C7345.6,2467.1,7347.6,2476.9,7347.3,2481.7z"/>
		<path class="st0" d="M7323.6,2492.4c-8.1,5.5-9.7-7.9-11.4-13.1c-0.7-2.4,0.8-4.9,3.2-5.6c6.5-1.3,6.1,7.4,8,11.5
			C7325.7,2486.9,7325.7,2490.5,7323.6,2492.4z"/>
		<path class="st0" d="M7300.2,2490.2c-1.6,6.1-8.9,4.6-9.9-1.1c-0.7-4.9-6-15.5,1.4-17c7-0.3,5.1,9,7,13.4
			C7300,2486.6,7300.6,2488.5,7300.2,2490.2z"/>
		<path class="st0" d="M7341.9,2422.5c-9.2,1.6-17.6,4-26.9,4.6c6.2,2.1,15.1,7.6,11.3,15.2c-3.1,5-9.6,5.8-14.7,7.9
			c5.9-0.3,11.7-0.5,17.6-0.4c3.8,0.3,9.4-0.9,11.4,3.2c1.5,3.3-1.6,6.6-4.9,6.7c-10.1,1.2-20.3,1.6-30.4,1.7
			c-3.1-0.3-7,1.2-9.5-1.1c-4.4,0.6-8-4.5-4.6-7.9c7.1-7.3,17-10.4,26.3-13.9c-7.6-4.9-16.6-5.7-25-8.3c-2.7-1.1-3.6-4.8-1.8-7.1
			c7.7-6.5,19.2-3.5,28.5-5.4c7.4-0.9,14.4-2.9,21.5-4.1C7346.5,2412.9,7347.8,2421.5,7341.9,2422.5z"/>
		<path class="st0" d="M7338.7,2366.8c-1.1,1.9-3.3,2.6-5.3,2c-6.8,1.5-13.6,3-20.4,4.3c-4.6,0.4-11.2,3.6-14.5-1
			c-2.7-4.4,4.6-11.6,8.6-7.1c8.5-1.5,16.2-3.4,24.6-5.1C7335.9,2358.4,7341.2,2362.4,7338.7,2366.8z"/>
		<path class="st0" d="M7301.9,2385.6c-7.5,0.3-5.6-10.5-6.8-15.4c0-5.4-3.9-21.9,4.8-21.3c6.3,1.3,2.7,8.8,3.6,13.2
			c0.5,5.7,0.9,11.4,1.9,17C7306.7,2381.8,7304.8,2385.2,7301.9,2385.6z"/>
		<path class="st0" d="M7345.5,2381.2c-2.5,7.6-13.4,2.1-8.4-4.2c0.2-9.6-1.1-19.2-2.2-28.7c-0.3-2.4,1.4-4.8,3.8-5.1
			c2.4-0.3,4.7,1.4,5.1,3.9C7344.8,2358.3,7347.4,2370,7345.5,2381.2z"/>
		<path class="st0" d="M7342,2304.6c-1.5,3-4.8,4.6-7.4,6.5c-8.8,6.3-17.9,12-26.7,18.3c6.8-0.4,13.5-0.8,20.3-0.9
			c3.4,0.1,7.6-0.3,10.1,2.5c2.1,2,1.6,5.7-0.9,7.1c-5,2.5-11.2,1.3-16.7,1.6c-4.6,0-9.3-0.3-13.3-0.1c-1.7,0.1-3.5,0.2-5-0.7
			c0,0,0,0,0,0c-2.1,0.1-4.6,0.7-6.7,0c-2.5-0.7-4.1-3.7-3-6.1c3.2-6.1,9.1-10.2,14.7-14c7.8-5.1,15.5-10.4,23.1-15.7
			c-9.1,0.3-18,3.1-27.1,3.9c-2.6,0.4-5.2-1.8-5.1-4.5c-0.1-3.3,3.6-6.2,6.7-4.8C7314.3,2297.2,7345.8,2286.5,7342,2304.6z"/>
		<path class="st0" d="M7345,2260.4c-5.9,1.5-40.1,8.3-41.5,1.4c-2.5-0.1-5.3,0.6-7.6-0.8c-3.1-1.8-2.9-6.7,0.5-8
			c10-4.2,19.2-10.1,28.7-15.4c-7.8-2.9-16-4.5-24-6.4c-2.8-0.2-5.5-2.3-5-5.4c0.3-2.1,2.3-4,4.5-3.9c5.8,0,11.4-2.2,17.1-2.5
			c6.9-0.9,14.3-0.5,20.8-3.4c6.7-8.7,20.3,10.6-13.9,11.8c6.4,1.4,16,7.3,9.4,14.4c-5,4.3-11.3,7.1-17,10.4
			c9.4,0.1,18.8-1.7,28-0.8C7349.4,2252.8,7349.3,2259.3,7345,2260.4z"/>
		<path class="st0" d="M7350.5,2194.1c-1.2,4.6-5.7,19-12.3,15.3c-2-1.2-3-4.1-1.6-6.2c2.5-4.2,5.8-8.9,5.2-14.1
			c-11.1,3.7-24.5,19.2-36.6,12.7c-4.4-3.4-8.1-8.8-7.3-14.6c0.6-4.9,5.8-5.9,9.6-4.7c2.8-0.2,5.7,0.8,6.1,3.9
			c0.5,3.3-2.6,5.7-5.8,5.1c0.7,1.1,1.6,2.1,2.6,2.9c12.2-1.4,20.6-14,32.9-14.5C7349.9,2181,7351.9,2188.5,7350.5,2194.1z"/>
		<path class="st0" d="M7344.3,2149.6c-13.3,0.4-29-3.2-40.2,5.8c9.4,4,19.6,3.9,29.6,3.9c4.4,0.4,12.5-2.1,13,4.5
			c0,2.5-2.1,4.4-4.5,4.5c-5.8,0.1-11.6,0.2-17.3,0.1c-3.9,0-7.9,0-11.8,0.1c-3.8,0.1-9.8,1.3-10.5-3.9c-7-1.9-10.8-9.6-5.1-15.2
			c4.4-4.3,10.3-6.7,16.2-7.9c9.5-2,19.3-1.1,28.9-0.8c2.6-0.3,5.3,1.1,5.7,3.9C7348.5,2146.9,7346.7,2149.3,7344.3,2149.6z"/>
		<path class="st0" d="M7330.8,2166.1c-1.5,5.3-9.4,3.7-8.8-1.8c0.5-4.7-0.4-9.4-0.9-14.1c-0.3-2.4,1.4-4.7,3.9-5.1
			c2.4-0.3,4.8,1.4,5.1,3.9C7330.5,2154.7,7331.9,2160.5,7330.8,2166.1z"/>
		<path class="st0" d="M7337,2115.5c-9.5,0.3-17.8,0.5-26.9,1.9c-2.8,1.2-5.8,1.7-8.9,2c-5.5,0.7-7.1-7.3-1.8-8.8
			c7.9-2.2,16.2-3.2,24.1-3.6c4.5-0.3,9-0.3,13.4-0.5c2.5-0.1,4.6,2.1,4.6,4.5C7341.5,2113.5,7339.5,2115.4,7337,2115.5z"/>
		<path class="st0" d="M7307.2,2127.4c-0.9,6.2-9.2,5.5-9.6-0.6c-0.6-5.7-6.1-26.9,3.5-26.1c3.4,0.4,4.4,4.1,3.7,6.8
			C7304.3,2114.2,7305.9,2120.9,7307.2,2127.4z"/>
		<path class="st0" d="M7351.1,2123.1c-0.1,2-1.3,3.8-3.3,4.4c-5.1,1.3-6.3-4.7-6.9-8.4c-1.3-5.8-2.3-11.7-2.9-17.6
			c-0.7-5.8,8.1-7.1,8.9-1.2C7347.7,2108,7349.3,2115.7,7351.1,2123.1z"/>
		<path class="st0" d="M7343,2069.3c-10.5,1-21.1,0.4-31.5,2.6c-3.6,0.6-7.9,2.6-11-0.4c-2.5-2.5-1.1-6.7,2-7.7
			c2.4-1.7,5.4-3.6,7.9-0.9c10.2-2.1,21-1.7,31.3-2.6C7347.6,2059.6,7348.8,2068.4,7343,2069.3z"/>
		<path class="st0" d="M7304.3,2082.4c-8.3,2.5-7.5-7.9-6.8-13.1c0.2-4,0.4-7.9,0.6-11.8c0.2-5.9,8.9-5.9,9,0
			c-0.2,5.8-0.6,11.6-1,17.3C7308.7,2077,7307.6,2081.5,7304.3,2082.4z"/>
		<path class="st0" d="M7355.5,2078.9c-3.9,4-10.9-2-7.7-6.5c-0.9-8-1.6-15.9-2.4-23.9c-0.6-1.5-0.4-3.3,0.7-4.6
			c2.1-2.8,7.1-2,7.9,1.6c1.3,8.7,1.6,17.5,2.8,26.2C7357,2074,7357.4,2077.1,7355.5,2078.9z"/>
	</g>
</g>
<g>
	<path d="M5165.8,3039.2c-0.7,0.5-1.4,1-2.1,1.5c66.6,88.8,56.8,218.1-80.3,204.2c80.7,53.1,192.5,239.6,21.9,242.7
		c124.1,96.9,100.4,215.4-67.1,208.9c108.6,53.6,235,220.6,72.2,289.9c43.3,14.7,98.5,48.5,87.5,101.9
		c-6.7,28.5-35.5,57.8-66.8,50.3c-33.1-8-29.4-55.5-2.9-67.9c-40-29.8-92.8-34.4-138.4-52.5c-67.2-25.6-132.3-61.7-187-108.5
		c-45.6-35-18.4-120.9,42-112.6c31.8,3.4,38.7,49.3,11.4,63.8c56.6,54.6,142.6,64.1,218,64.2c106.8-15.2,4.4-130.2-45.7-155.2
		c-104-72.6-228.1-106.5-351.2-130c-37.3-9.3-77-12.9-111.9-29.5c-20.4-11-29.1-40.5-11.4-57.8c19-19.4,46.6-9.2,69.3-3.5
		c101.6,24.6,409.7,119.5,493.8,63.7c-21.4-77-116.9-114-185.1-141.9c-35.9-18.9-137-14.8-132.4-67.1c9-45.9,60.2-22.9,90.3-15.8
		c77.8,15.9,158.6,37.4,238.3,30.6c-15-81.8-102.2-137.7-170.3-172.8c-34.4-15.4-69.1-28.6-103.7-40.7
		c-26.1-8.3-68.1-16.9-58.7-53.5c16.1-45.3,69.7-14.6,101.9-7.9c75.6,15.2,158.5,47.4,234.9,28.5c18.2-36.6-15-81.6-36.6-110.9
		c-106.9,0.9-243.6-19.5-303.2-118.8c-17.8-32.3,3.7-72.4,41.3-72.8c108.4-6.6,211.6,42.2,286.2,118.9
		c77.8-61.7-79.9-210.5-142.7-233.4c-54.4-24.1-110.3-53.9-135.7-111c-23.1-40.4-43-98.9,1.3-132.9c-55-9.6-422-70.9-402.3-134.5
		c2.1-15.6,16.7-29.8,33.1-28.9c71.3,5.7,139.6,16.9,207.1,37.3c128.7,33.2,260,99.6,395.1,77c-38.8-235.7-383.4-185-318.2-283.8
		c-127.7-91.4,18.8-224.6,134.8-188.7c-42.3-75.3-121.9-131.2-138.6-219.5c-7.7-41.2-32.1-153,42.9-128.7
		c14.9,8.7,19.8,26.6,13.7,41.9c-11.6,136.6,127,206.7,163.2,326.4c134.8,35.2,299,234.1,83.9,285.4c59.5,55.1,145.5,210.1,20,236
		c79.5,44.5,158.6,203.7,24.5,227.9C5174.2,2824.1,5261.4,2959,5165.8,3039.2z M5108.5,2676.4c-17-72-93.1-108.5-156.3-133.4
		c-12.7,19.2-41.4,23.4-54.5,42c0.3-0.4,0.6-0.8,0.9-1.3c0.3-0.4,0.7-0.7,1-1.1C4863.5,2627.8,5108.4,2736.2,5108.5,2676.4z
		 M5094.5,2199.4c-7.5-57.5-67.9-92-115.4-115.7c-7.1,50.5-41.5,96.4-89.8,113.8C4945.2,2210.3,5057.4,2262.5,5094.5,2199.4z
		 M5020,2990.9c-42.1-32-93.9-50-146.5-53.6C4915.2,2970,4968.6,2983.1,5020,2990.9z M4914,2061.9c-48.4-12.6-114-21.4-139.3,32.8
		c-0.1-0.5,0-1-0.1-1.4c0.1-1-0.2-2.1-0.2-3.2c0.3,21.9,22.1,35.4,40.5,42.2C4863.9,2154.2,4915.3,2113.5,4914,2061.9z"/>
	<g>
		<path class="st0" d="M5452.7,4011.1c-10.5,7-24.5,3.9-36.5,5.2c-30.8,0.7-61.3,7.1-92.1,6c-13.3,0.7-23-14.1-13.1-24.7
			c17.6-13.4,39.4-20.7,58.2-32.4c-17-8.2-84.8-6.8-63.7-38.5c9.9-8.2,24.9-9.3,36.8-12.7c19.8-4.2,39.3-7.7,59.1-11.6
			c10.3-2.2,21-3.9,31.1-7.2c7.3-2.4,15.3,2.7,17.2,9.7c4,17.6-17.5,19.3-29.6,22c-16.1,3.6-32.2,6.5-48.4,9.5
			c23.4,4,47.5,26.6,22,46.1c18.1,0.8,36.5,0.9,54.4,3.8C5458.7,3988.9,5461.7,4004.6,5452.7,4011.1z"/>
		<path class="st0" d="M5451.2,3799.4c-40.1,11.9-83.3,9-123.4,20.6c33.4,5.8,66.8,6.9,100.3,9.7c15.7,1.9,15.8,25.9,0,27.7
			c-37.2,1.2-74.6-1.1-111.9,1.1c-10.4,1.4-19.2-9.7-14.6-19.4c-11.7-9.5-9.1-27.8,2-36.8c29.8-21.9,70.2-15.5,104.9-23.1
			c14.9,0.1,42.1-15.8,50.2,1.7C5461.6,3788.1,5458.2,3796.4,5451.2,3799.4z"/>
		<path class="st0" d="M5407.2,3849.6c0.2-0.1,0.4-0.2,0.7-0.3c0.4-0.3,0.9-0.6,1.3-0.9c-30.1,22.2-34.4-42.2-42.1-59.6
			c-2.1-7.4,2.5-15.2,9.7-17.2c7.4-2,15.2,2.5,17.2,9.8c4.1,14.4,8.1,28.9,12.7,43.2C5417.1,3829.1,5417.4,3844.6,5407.2,3849.6z"/>
		<path class="st0" d="M5446.2,3710.2c-17.8,0.1-35.7-1.5-53.5-3.2c5.9,10.8-2.9,22.1-12.7,26.5c-15.9,8.8-33,18.3-46.6,28.8
			c-12.4,15.8-36.1-3.6-21.7-18.2c1-6.7,6.9-12,13.8-12c0.6,0,1.1,0,1.7,0.1c4-2.7,8.2-5.3,12.3-7.8c5.6-3.4,11.2-6.5,16.9-9.7
			c-15.6-6.2-32.3-9.8-48-13c-5.8-0.3-11.3-1.6-14.6-7.3c-5.5-9,1.6-21.2,12.1-21.1c18.9,0.7,38,0.4,56.9,2.5
			c27.7,2.5,55.6,6.4,83.4,6.3C5464.4,3682.5,5464.6,3709.6,5446.2,3710.2z"/>
		<path class="st0" d="M5444.9,3546.1c-25,3.8-50,7.4-75.4,7.5c13,16.6,21.4,40.9,44.4,45.5c10.9,1.7,23.1-4.6,32.8,2.2
			c9.7,7,5.3,23.8-6.7,24.9c-5.4,0.5-10.8,0.7-16.2,0.9c-36.1,0.9-72.4,1.4-108.2,4.3c-8.2-1-14.2-9.9-11.9-17.9
			c4-13.6,21.4-11.1,32.6-11.9c10.4,0,20.8-1.2,31.3-1.2c-12.9-15.3-19.5-40.1-42.7-41.8c-6.8-1.4-13.7-2.9-20.7-3.6
			c-13.7-1.3-16.5-22-3.5-26.8c46.4-5.7,94.1,0.1,140.3-10C5459.2,3516.1,5463.1,3543.4,5444.9,3546.1z"/>
		<path class="st0" d="M5462.2,3431.1c-1.8,33.5-29.2,36.1-56.4,35.4c-23.3,0.8-45.7,1.9-68.2,3.4c-11.8,6.8-29.5,9.9-40.7,0.3
			c-7.7-6.9-3.8-20.1,5.3-23.6c13.7-4.5,28.7-3.8,42.8-5.1c-0.2,0-0.4,0-0.6,0c27-1.9,54-2.6,80.9-3.6c2.3-0.4,5-0.1,7-1.4
			c1.1-1.8,2-4.6,2.1-6.4c0,0.1,0,0.2,0,0.3c-0.1,0.4-0.2,0.8-0.3,1.2c1.6-7.4-1.5-14.4-4.9-20.9c-3.4-6.9,0.8-15.5,7.5-18.3
			C5456.9,3386.1,5463,3416.4,5462.2,3431.1z"/>
		<path class="st0" d="M5388.8,3464.3c-25.1,17.2-30-24.7-35.3-40.7c-2.2-7.3,2.5-15.2,9.8-17.2c20.3-4,19.1,23,24.8,35.8
			C5395,3447.3,5395,3458.5,5388.8,3464.3z"/>
		<path class="st0" d="M5315.9,3457.6c-4.9,18.9-27.7,14.2-30.7-3.4c-2.1-15.1-18.6-48.1,4.2-52.9c21.6-1,15.8,27.8,21.7,41.6
			C5315.3,3446.4,5317.2,3452.3,5315.9,3457.6z"/>
		<path class="st0" d="M5445.5,3247.6c-28.7,4.8-54.6,12.6-83.3,14.3c19.1,6.4,46.8,23.6,35.2,47.1c-9.8,15.6-29.8,17.9-45.6,24.6
			c18.2-0.9,36.4-1.5,54.7-1.2c11.7,1.1,29.1-2.8,35.4,9.9c4.5,10.2-4.9,20.5-15.2,20.7c-31.4,3.6-62.9,4.8-94.4,5.3
			c-9.6-1-21.7,3.7-29.5-3.4c-13.6,1.7-24.8-13.8-14.4-24.6c22-22.8,52.7-32.4,81.5-43.2c-23.5-15.1-51.4-17.7-77.5-25.8
			c-8.4-3.5-11.2-15-5.7-22.1c24-20.1,59.7-10.9,88.5-16.7c22.9-2.9,44.6-9.1,66.6-12.6C5459.8,3217.7,5463.8,3244.5,5445.5,3247.6z
			"/>
		<path class="st0" d="M5435.5,3074.5c-3.4,5.8-10.3,8.2-16.4,6.2c-21,4.5-42.1,9.3-63.2,13.4c-14.2,1.3-34.7,11.1-45-3
			c-8.4-13.6,14.3-36,26.7-22c26.4-4.7,50.3-10.5,76.3-15.9C5426.7,3048.5,5443.3,3061.1,5435.5,3074.5z"/>
		<path class="st0" d="M5321.2,3133c-23.2,1-17.3-32.5-21.2-47.8c0.1-16.7-12.1-67.9,14.9-66.1c19.7,4,8.3,27.3,11.1,41
			c1.4,17.7,2.9,35.4,5.8,52.9C5336.2,3121.1,5330.4,3131.8,5321.2,3133z"/>
		<path class="st0" d="M5456.7,3119.4c-7.7,23.7-41.7,6.6-26.1-13.1c0.8-29.7-3.4-59.6-6.9-89.1c-1-7.5,4.4-14.8,11.9-15.8
			c7.6-1,14.7,4.4,15.8,12C5454.5,3048.4,5462.5,3084.5,5456.7,3119.4z"/>
		<path class="st0" d="M5445.8,2881.7c-4.7,9.4-14.9,14.1-22.8,20.3c-27.2,19.7-55.7,37.4-82.9,56.9c21.1-1.2,42-2.6,63.1-2.9
			c10.6,0.2,23.5-0.9,31.3,7.6c6.5,6.2,4.9,17.5-2.8,22c-15.7,7.6-34.8,3.9-51.9,5c-14.3-0.1-28.7-1-41.1-0.2
			c-5.3,0.4-10.7,0.5-15.4-2.2c0,0-0.1,0-0.1,0c-6.6,0.2-14.1,2.1-20.8-0.1c-7.7-2.2-12.8-11.4-9.2-18.9c9.8-19,28.3-31.6,45.5-43.3
			c24.2-15.9,48-32.2,71.7-48.9c-28.4,1.1-55.9,9.8-84.1,12.1c-8,1.2-16.2-5.6-15.9-13.8c-0.4-10.2,11.3-19.3,20.9-14.9
			C5359.6,2858.6,5457.6,2825.5,5445.8,2881.7z"/>
		<path class="st0" d="M5455.1,2744.3c-18.4,4.7-124.3,25.9-128.7,4.2c-7.9-0.3-16.3,1.9-23.5-2.5c-9.6-5.6-8.9-20.8,1.6-25
			c31.2-13,59.5-31.3,88.9-47.7c-24.1-9-49.5-14-74.5-19.8c-8.7-0.7-17.1-7.1-15.7-16.6c0.9-6.5,7-12.5,13.8-12.1
			c18,0,35.2-6.8,53.2-7.8c21.5-2.7,44.5-1.6,64.6-10.6c20.9-27.1,63.2,32.9-43.3,36.7c19.9,4.5,49.7,22.8,29.1,44.6
			c-15.6,13.5-34.9,21.9-52.7,32.2c29.1,0.3,58.4-5.2,86.9-2.4C5468.6,2720.7,5468.5,2740.9,5455.1,2744.3z"/>
		<path class="st0" d="M5472,2538.8c-3.8,14.4-17.8,59-38.3,47.6c-6.3-3.7-9.2-12.8-5-19.1c7.8-13.1,18-27.6,16.1-43.6
			c-34.4,11.5-76,59.7-113.6,39.5c-13.5-10.7-25.3-27.3-22.8-45.2c2-15.2,18.1-18.2,29.9-14.6c8.6-0.7,17.8,2.5,19,12.1
			c1.4,10.1-8.2,17.7-17.9,15.9c2.1,3.5,5.1,6.4,8.1,9.1c37.7-4.2,63.9-43.6,102.2-44.9C5470.1,2497.9,5476.4,2521.3,5472,2538.8z"
			/>
		<path class="st0" d="M5452.8,2400.4c-41.2,1.2-90-10-124.9,18c29.2,12.3,60.7,12.2,91.8,12c13.7,1.2,38.8-6.6,40.3,13.8
			c0,7.9-6.4,13.7-14,14c-17.9,0.3-35.9,0.6-53.8,0.3c-12.2,0.1-24.5,0.1-36.7,0.4c-11.7,0.3-30.3,4-32.5-12.1
			c-21.7-6-33.4-29.7-15.8-47.1c13.6-13.5,31.9-20.8,50.4-24.6c29.6-6.1,59.8-3.3,89.7-2.4c8.1-1,16.5,3.3,17.6,12
			C5465.8,2392,5460.4,2399.5,5452.8,2400.4z"/>
		<path class="st0" d="M5411.1,2451.7c-4.7,16.5-29.2,11.4-27.5-5.5c1.7-14.5-1.3-29.2-2.8-43.6c-1-7.5,4.3-14.7,12-15.8
			c7.5-1,14.8,4.4,15.8,12C5410.1,2416.2,5414.3,2434.2,5411.1,2451.7z"/>
		<path class="st0" d="M5430.3,2294.5c-29.5,0.9-55.2,1.4-83.5,5.8c-8.6,3.8-18.1,5.2-27.7,6.2c-17,2.1-22.1-22.7-5.6-27.3
			c24.4-6.8,50.2-10,74.8-11.2c13.9-1,27.8-1.1,41.7-1.6c7.7-0.4,14.2,6.5,14.2,14C5444.3,2288.4,5437.9,2294.3,5430.3,2294.5z"/>
		<path class="st0" d="M5337.9,2331.5c-2.7,19.2-28.6,17.1-29.7-1.9c-1.7-17.6-19-83.6,10.8-81.1c10.5,1.2,13.6,12.7,11.4,21.1
			C5328.8,2290.6,5333.6,2311.4,5337.9,2331.5z"/>
		<path class="st0" d="M5474,2318.4c-0.4,6.3-4,11.8-10.3,13.5c-15.8,4-19.5-14.5-21.4-26.1c-4-18-7.2-36.2-9.1-54.5
			c-2.2-18.1,25.1-21.9,27.7-3.8C5463.5,2271.4,5468.3,2295.2,5474,2318.4z"/>
		<path class="st0" d="M5448.8,2151.3c-32.5,3.1-65.6,1.4-97.7,8c-11.2,1.8-24.7,7.9-34.1-1.2c-7.7-7.8-3.6-20.8,6.3-23.8
			c7.5-5.4,16.6-11.2,24.6-2.8c31.7-6.6,65.3-5.1,97-8C5463,2121.2,5466.9,2148.5,5448.8,2151.3z"/>
		<path class="st0" d="M5328.8,2191.9c-25.7,7.8-23.2-24.5-21.1-40.7c0.7-12.3,1.3-24.5,1.9-36.8c0.5-18.4,27.7-18.4,28,0
			c-0.7,18-1.8,35.9-3,53.8C5342.5,2175,5339.1,2189.2,5328.8,2191.9z"/>
		<path class="st0" d="M5487.5,2181c-12.1,12.3-33.8-6.2-23.8-20.1c-2.9-24.7-4.9-49.5-7.4-74.2c-1.9-4.6-1.2-10.3,2.1-14.3
			c6.6-8.8,22-6.3,24.6,4.8c4,26.9,4.9,54.4,8.6,81.4C5492.3,2165.8,5493.6,2175.5,5487.5,2181z"/>
	</g>
</g>
<g>
	<path d="M3701.6,2973.8c0.2-0.2,0.4-0.3,0.7-0.5c-21.5-28.6-18.3-70.3,25.9-65.8c-26-17.1-62-77.2-7-78.2
		c-40-31.2-32.4-69.4,21.6-67.3c-35-17.3-75.7-71.1-23.3-93.4c-14-4.7-31.7-15.6-28.2-32.8c2.1-9.2,11.4-18.6,21.5-16.2
		c10.7,2.6,9.5,17.9,0.9,21.9c12.9,9.6,29.9,11.1,44.6,16.9c21.7,8.2,42.6,19.9,60.2,35c14.7,11.3,5.9,39-13.5,36.3
		c-10.2-1.1-12.5-15.9-3.7-20.6c-18.2-17.6-46-20.7-70.2-20.7c-34.4,4.9-1.4,41.9,14.7,50c33.5,23.4,73.5,34.3,113.2,41.9
		c12,3,24.8,4.2,36.1,9.5c6.6,3.5,9.4,13.1,3.7,18.6c-6.1,6.2-15,3-22.3,1.1c-32.7-7.9-132-38.5-159.1-20.5
		c6.9,24.8,37.7,36.7,59.6,45.7c11.6,6.1,44.2,4.8,42.7,21.6c-2.9,14.8-19.4,7.4-29.1,5.1c-25.1-5.1-51.1-12-76.8-9.9
		c4.8,26.4,32.9,44.4,54.9,55.7c11.1,5,22.3,9.2,33.4,13.1c8.4,2.7,21.9,5.5,18.9,17.2c-5.2,14.6-22.5,4.7-32.8,2.6
		c-24.4-4.9-51.1-15.3-75.7-9.2c-5.9,11.8,4.8,26.3,11.8,35.7c34.4-0.3,78.5,6.3,97.7,38.3c5.7,10.4-1.2,23.3-13.3,23.5
		c-34.9,2.1-68.2-13.6-92.2-38.3c-25.1,19.9,25.8,67.8,46,75.2c17.5,7.8,35.5,17.4,43.7,35.8c7.5,13,13.9,31.9-0.4,42.8
		c17.7,3.1,136,22.8,129.6,43.4c-0.7,5-5.4,9.6-10.7,9.3c-23-1.9-45-5.5-66.7-12c-41.5-10.7-83.8-32.1-127.3-24.8
		c12.5,75.9,123.5,59.6,102.5,91.4c41.1,29.5-6.1,72.4-43.4,60.8c13.6,24.3,39.3,42.3,44.7,70.7c2.5,13.3,10.4,49.3-13.8,41.5
		c-4.8-2.8-6.4-8.6-4.4-13.5c3.7-44-40.9-66.6-52.6-105.2c-43.4-11.3-96.3-75.4-27-92c-19.2-17.8-46.9-67.7-6.5-76
		c-25.6-14.3-51.1-65.6-7.9-73.4C3698.9,3043.1,3670.8,2999.6,3701.6,2973.8z M3720.1,3090.7c5.5,23.2,30,35,50.4,43
		c4.1-6.2,13.3-7.5,17.6-13.5c-0.1,0.1-0.2,0.3-0.3,0.4c-0.1,0.1-0.2,0.2-0.3,0.4C3799,3106.4,3720.1,3071.4,3720.1,3090.7z
		 M3724.6,3244.4c2.4,18.5,21.9,29.6,37.2,37.3c2.3-16.3,13.4-31.1,28.9-36.7C3772.7,3240.9,3736.6,3224.1,3724.6,3244.4z
		 M3748.6,2989.4c13.6,10.3,30.2,16.1,47.2,17.3C3782.4,2996.1,3765.2,2991.9,3748.6,2989.4z M3782.8,3288.7
		c15.6,4.1,36.7,6.9,44.9-10.6c0,0.2,0,0.3,0,0.4c0,0.3,0.1,0.7,0.1,1c-0.1-7.1-7.1-11.4-13.1-13.6
		C3798.9,3259,3782.3,3272.1,3782.8,3288.7z"/>
	<g>
		<path class="st0" d="M3609.2,2660.7c3.4-2.3,7.9-1.3,11.8-1.7c9.9-0.2,19.7-2.3,29.7-1.9c4.3-0.2,7.4,4.5,4.2,8
			c-5.7,4.3-12.7,6.7-18.7,10.4c5.5,2.6,27.3,2.2,20.5,12.4c-3.2,2.6-8,3-11.8,4.1c-6.4,1.3-12.7,2.5-19,3.7
			c-3.3,0.7-6.8,1.2-10,2.3c-2.3,0.8-4.9-0.9-5.5-3.1c-1.3-5.7,5.6-6.2,9.5-7.1c5.2-1.1,10.4-2.1,15.6-3.1
			c-7.5-1.3-15.3-8.6-7.1-14.8c-5.8-0.3-11.8-0.3-17.5-1.2C3607.2,2667.8,3606.3,2662.8,3609.2,2660.7z"/>
		<path class="st0" d="M3609.7,2728.9c12.9-3.8,26.9-2.9,39.8-6.7c-10.8-1.9-21.5-2.2-32.3-3.1c-5.1-0.6-5.1-8.4,0-8.9
			c12-0.4,24,0.3,36-0.4c3.3-0.4,6.2,3.1,4.7,6.2c3.8,3.1,2.9,9-0.6,11.8c-9.6,7.1-22.6,5-33.8,7.4c-4.8,0-13.6,5.1-16.2-0.6
			C3606.3,2732.5,3607.4,2729.8,3609.7,2728.9z"/>
		<path class="st0" d="M3623.8,2712.7c-0.1,0-0.1,0.1-0.2,0.1c-0.1,0.1-0.3,0.2-0.4,0.3c9.7-7.1,11.1,13.6,13.6,19.2
			c0.7,2.4-0.8,4.9-3.1,5.6c-2.4,0.6-4.9-0.8-5.6-3.2c-1.3-4.6-2.6-9.3-4.1-13.9C3620.7,2719.3,3620.6,2714.3,3623.8,2712.7z"/>
		<path class="st0" d="M3611.3,2757.6c5.7,0,11.5,0.5,17.2,1c-1.9-3.5,0.9-7.1,4.1-8.5c5.1-2.8,10.6-5.9,15-9.3
			c4-5.1,11.6,1.2,7,5.9c-0.3,2.2-2.2,3.9-4.5,3.9c-0.2,0-0.4,0-0.5,0c-1.3,0.9-2.6,1.7-4,2.5c-1.8,1.1-3.6,2.1-5.4,3.1
			c5,2,10.4,3.2,15.5,4.2c1.9,0.1,3.7,0.5,4.7,2.3c1.8,2.9-0.5,6.8-3.9,6.8c-6.1-0.2-12.2-0.1-18.3-0.8c-8.9-0.8-17.9-2.1-26.9-2
			C3605.4,2766.5,3605.3,2757.8,3611.3,2757.6z"/>
		<path class="st0" d="M3611.7,2810.5c8.1-1.2,16.1-2.4,24.3-2.4c-4.2-5.4-6.9-13.2-14.3-14.7c-3.5-0.6-7.4,1.5-10.6-0.7
			c-3.1-2.2-1.7-7.7,2.1-8c1.7-0.1,3.5-0.2,5.2-0.3c11.6-0.3,23.3-0.5,34.9-1.4c2.6,0.3,4.6,3.2,3.8,5.8c-1.3,4.4-6.9,3.6-10.5,3.8
			c-3.4,0-6.7,0.4-10.1,0.4c4.2,4.9,6.3,12.9,13.8,13.5c2.2,0.4,4.4,0.9,6.7,1.2c4.4,0.4,5.3,7.1,1.1,8.6c-14.9,1.8-30.3,0-45.2,3.2
			C3607.1,2820.2,3605.8,2811.4,3611.7,2810.5z"/>
		<path class="st0" d="M3606.1,2847.5c0.6-10.8,9.4-11.6,18.2-11.4c7.5-0.3,14.7-0.6,22-1.1c3.8-2.2,9.5-3.2,13.1-0.1
			c2.5,2.2,1.2,6.5-1.7,7.6c-4.4,1.4-9.3,1.2-13.8,1.6c0.1,0,0.1,0,0.2,0c-8.7,0.6-17.4,0.8-26.1,1.2c-0.7,0.1-1.6,0-2.2,0.4
			c-0.4,0.6-0.6,1.5-0.7,2.1c0,0,0-0.1,0-0.1c0-0.1,0.1-0.3,0.1-0.4c-0.5,2.4,0.5,4.7,1.6,6.7c1.1,2.2-0.2,5-2.4,5.9
			C3607.8,2862,3605.9,2852.3,3606.1,2847.5z"/>
		<path class="st0" d="M3629.8,2836.8c8.1-5.5,9.7,7.9,11.4,13.1c0.7,2.4-0.8,4.9-3.2,5.6c-6.5,1.3-6.1-7.4-8-11.5
			C3627.8,2842.3,3627.8,2838.7,3629.8,2836.8z"/>
		<path class="st0" d="M3653.3,2839c1.6-6.1,8.9-4.6,9.9,1.1c0.7,4.9,6,15.5-1.4,17c-7,0.3-5.1-9-7-13.4
			C3653.4,2842.6,3652.8,2840.7,3653.3,2839z"/>
		<path class="st0" d="M3611.5,2906.7c9.2-1.6,17.6-4,26.9-4.6c-6.2-2.1-15.1-7.6-11.3-15.2c3.1-5,9.6-5.8,14.7-7.9
			c-5.9,0.3-11.7,0.5-17.6,0.4c-3.8-0.3-9.4,0.9-11.4-3.2c-1.5-3.3,1.6-6.6,4.9-6.7c10.1-1.2,20.3-1.6,30.4-1.7
			c3.1,0.3,7-1.2,9.5,1.1c4.4-0.6,8,4.5,4.6,7.9c-7.1,7.3-17,10.4-26.3,13.9c7.6,4.9,16.6,5.7,25,8.3c2.7,1.1,3.6,4.8,1.8,7.1
			c-7.7,6.5-19.2,3.5-28.5,5.4c-7.4,0.9-14.4,2.9-21.5,4.1C3606.9,2916.3,3605.6,2907.7,3611.5,2906.7z"/>
		<path class="st0" d="M3614.7,2962.4c1.1-1.9,3.3-2.6,5.3-2c6.8-1.5,13.6-3,20.4-4.3c4.6-0.4,11.2-3.6,14.5,1
			c2.7,4.4-4.6,11.6-8.6,7.1c-8.5,1.5-16.2,3.4-24.6,5.1C3617.6,2970.8,3612.2,2966.7,3614.7,2962.4z"/>
		<path class="st0" d="M3651.5,2943.6c7.5-0.3,5.6,10.5,6.8,15.4c0,5.4,3.9,21.9-4.8,21.3c-6.3-1.3-2.7-8.8-3.6-13.2
			c-0.5-5.7-0.9-11.4-1.9-17C3646.7,2947.4,3648.6,2944,3651.5,2943.6z"/>
		<path class="st0" d="M3607.9,2948c2.5-7.6,13.4-2.1,8.4,4.2c-0.2,9.6,1.1,19.2,2.2,28.7c0.3,2.4-1.4,4.8-3.8,5.1
			c-2.4,0.3-4.7-1.4-5.1-3.9C3608.6,2970.8,3606,2959.2,3607.9,2948z"/>
		<path class="st0" d="M3611.4,3024.5c1.5-3,4.8-4.6,7.4-6.5c8.8-6.3,17.9-12,26.7-18.3c-6.8,0.4-13.5,0.8-20.3,0.9
			c-3.4-0.1-7.6,0.3-10.1-2.5c-2.1-2-1.6-5.7,0.9-7.1c5-2.5,11.2-1.3,16.7-1.6c4.6,0,9.3,0.3,13.3,0.1c1.7-0.1,3.5-0.2,5,0.7
			c0,0,0,0,0,0c2.1-0.1,4.6-0.7,6.7,0c2.5,0.7,4.1,3.7,3,6.1c-3.2,6.1-9.1,10.2-14.7,14c-7.8,5.1-15.5,10.4-23.1,15.7
			c9.1-0.3,18-3.1,27.1-3.9c2.6-0.4,5.2,1.8,5.1,4.5c0.1,3.3-3.6,6.2-6.7,4.8C3639.2,3032,3607.6,3042.7,3611.4,3024.5z"/>
		<path class="st0" d="M3608.4,3068.8c5.9-1.5,40.1-8.3,41.5-1.4c2.5,0.1,5.3-0.6,7.6,0.8c3.1,1.8,2.9,6.7-0.5,8
			c-10,4.2-19.2,10.1-28.7,15.4c7.8,2.9,16,4.5,24,6.4c2.8,0.2,5.5,2.3,5,5.4c-0.3,2.1-2.3,4-4.5,3.9c-5.8,0-11.4,2.2-17.1,2.5
			c-6.9,0.9-14.3,0.5-20.8,3.4c-6.7,8.7-20.3-10.6,13.9-11.8c-6.4-1.4-16-7.3-9.4-14.4c5-4.3,11.3-7.1,17-10.4
			c-9.4-0.1-18.8,1.7-28,0.8C3604.1,3076.4,3604.1,3069.9,3608.4,3068.8z"/>
		<path class="st0" d="M3602.9,3135c1.2-4.6,5.7-19,12.3-15.3c2,1.2,3,4.1,1.6,6.2c-2.5,4.2-5.8,8.9-5.2,14.1
			c11.1-3.7,24.5-19.2,36.6-12.7c4.4,3.4,8.1,8.8,7.3,14.6c-0.6,4.9-5.8,5.9-9.6,4.7c-2.8,0.2-5.7-0.8-6.1-3.9
			c-0.5-3.3,2.6-5.7,5.8-5.1c-0.7-1.1-1.6-2.1-2.6-2.9c-12.2,1.4-20.6,14-32.9,14.5C3603.6,3148.2,3601.5,3140.7,3602.9,3135z"/>
		<path class="st0" d="M3609.2,3179.6c13.3-0.4,29,3.2,40.2-5.8c-9.4-4-19.6-3.9-29.6-3.9c-4.4-0.4-12.5,2.1-13-4.5
			c0-2.5,2.1-4.4,4.5-4.5c5.8-0.1,11.6-0.2,17.3-0.1c3.9,0,7.9,0,11.8-0.1c3.8-0.1,9.8-1.3,10.5,3.9c7,1.9,10.8,9.6,5.1,15.2
			c-4.4,4.3-10.3,6.7-16.2,7.9c-9.5,2-19.3,1.1-28.9,0.8c-2.6,0.3-5.3-1.1-5.7-3.9C3605,3182.3,3606.7,3179.9,3609.2,3179.6z"/>
		<path class="st0" d="M3622.6,3163.1c1.5-5.3,9.4-3.7,8.8,1.8c-0.5,4.7,0.4,9.4,0.9,14.1c0.3,2.4-1.4,4.7-3.9,5.1
			c-2.4,0.3-4.8-1.4-5.1-3.9C3622.9,3174.5,3621.6,3168.7,3622.6,3163.1z"/>
		<path class="st0" d="M3616.4,3213.7c9.5-0.3,17.8-0.5,26.9-1.9c2.8-1.2,5.8-1.7,8.9-2c5.5-0.7,7.1,7.3,1.8,8.8
			c-7.9,2.2-16.2,3.2-24.1,3.6c-4.5,0.3-9,0.3-13.4,0.5c-2.5,0.1-4.6-2.1-4.6-4.5C3611.9,3215.7,3613.9,3213.8,3616.4,3213.7z"/>
		<path class="st0" d="M3646.2,3201.8c0.9-6.2,9.2-5.5,9.6,0.6c0.6,5.7,6.1,26.9-3.5,26.1c-3.4-0.4-4.4-4.1-3.7-6.8
			C3649.1,3215,3647.5,3208.3,3646.2,3201.8z"/>
		<path class="st0" d="M3602.3,3206.1c0.1-2,1.3-3.8,3.3-4.4c5.1-1.3,6.3,4.7,6.9,8.4c1.3,5.8,2.3,11.7,2.9,17.6
			c0.7,5.8-8.1,7.1-8.9,1.2C3605.7,3221.2,3604.2,3213.5,3602.3,3206.1z"/>
		<path class="st0" d="M3610.4,3259.9c10.5-1,21.1-0.4,31.5-2.6c3.6-0.6,7.9-2.6,11,0.4c2.5,2.5,1.1,6.7-2,7.7
			c-2.4,1.7-5.4,3.6-7.9,0.9c-10.2,2.1-21,1.7-31.3,2.6C3605.8,3269.6,3604.6,3260.8,3610.4,3259.9z"/>
		<path class="st0" d="M3649.1,3246.8c8.3-2.5,7.5,7.9,6.8,13.1c-0.2,4-0.4,7.9-0.6,11.8c-0.2,5.9-8.9,5.9-9,0
			c0.2-5.8,0.6-11.6,1-17.3C3644.7,3252.2,3645.8,3247.7,3649.1,3246.8z"/>
		<path class="st0" d="M3598,3250.3c3.9-4,10.9,2,7.7,6.5c0.9,8,1.6,15.9,2.4,23.9c0.6,1.5,0.4,3.3-0.7,4.6c-2.1,2.8-7.1,2-7.9-1.6
			c-1.3-8.7-1.6-17.5-2.8-26.2C3596.4,3255.2,3596,3252.1,3598,3250.3z"/>
	</g>
</g>
<g>
	<path d="M5482.4,1052.6c0.2,0.2,0.3,0.4,0.5,0.7c28.6-21.5,70.3-18.3,65.8,25.9c17.1-26,77.2-62,78.2-7
		c31.2-40,69.4-32.4,67.3,21.6c17.3-35,71.1-75.7,93.4-23.3c4.7-14,15.6-31.7,32.8-28.2c9.2,2.1,18.6,11.4,16.2,21.5
		c-2.6,10.7-17.9,9.5-21.9,0.9c-9.6,12.9-11.1,29.9-16.9,44.6c-8.2,21.7-19.9,42.6-35,60.2c-11.3,14.7-39,5.9-36.3-13.5
		c1.1-10.2,15.9-12.5,20.6-3.7c17.6-18.2,20.7-46,20.7-70.2c-4.9-34.4-41.9-1.4-50,14.7c-23.4,33.5-34.3,73.5-41.9,113.2
		c-3,12-4.2,24.8-9.5,36.1c-3.5,6.6-13.1,9.4-18.6,3.7c-6.2-6.1-3-15-1.1-22.3c7.9-32.7,38.5-132,20.5-159.1
		c-24.8,6.9-36.7,37.7-45.7,59.6c-6.1,11.6-4.8,44.2-21.6,42.7c-14.8-2.9-7.4-19.4-5.1-29.1c5.1-25.1,12-51.1,9.9-76.8
		c-26.4,4.8-44.4,32.9-55.7,54.9c-5,11.1-9.2,22.3-13.1,33.4c-2.7,8.4-5.5,21.9-17.2,18.9c-14.6-5.2-4.7-22.5-2.6-32.8
		c4.9-24.4,15.3-51.1,9.2-75.7c-11.8-5.9-26.3,4.8-35.7,11.8c0.3,34.4-6.3,78.5-38.3,97.7c-10.4,5.7-23.3-1.2-23.5-13.3
		c-2.1-34.9,13.6-68.2,38.3-92.2c-19.9-25.1-67.8,25.8-75.2,46c-7.8,17.5-17.4,35.5-35.8,43.7c-13,7.5-31.9,13.9-42.8-0.4
		c-3.1,17.7-22.8,136-43.4,129.6c-5-0.7-9.6-5.4-9.3-10.7c1.9-23,5.5-45,12-66.7c10.7-41.5,32.1-83.8,24.8-127.3
		c-75.9,12.5-59.6,123.5-91.4,102.5c-29.5,41.1-72.4-6.1-60.8-43.4c-24.3,13.6-42.3,39.3-70.7,44.7c-13.3,2.5-49.3,10.4-41.5-13.8
		c2.8-4.8,8.6-6.4,13.5-4.4c44,3.7,66.6-40.9,105.2-52.6c11.3-43.4,75.4-96.3,92-27c17.8-19.2,67.7-46.9,76-6.5
		c14.3-25.6,65.6-51.1,73.4-7.9C5413.1,1049.9,5456.6,1021.8,5482.4,1052.6z M5365.5,1071c-23.2,5.5-35,30-43,50.4
		c6.2,4.1,7.5,13.3,13.5,17.6c-0.1-0.1-0.3-0.2-0.4-0.3c-0.1-0.1-0.2-0.2-0.4-0.3C5349.9,1150,5384.8,1071.1,5365.5,1071z
		 M5211.8,1075.6c-18.5,2.4-29.6,21.9-37.3,37.2c16.3,2.3,31.1,13.4,36.7,28.9C5215.4,1123.6,5232.2,1087.5,5211.8,1075.6z
		 M5466.9,1099.5c-10.3,13.6-16.1,30.2-17.3,47.2C5460.1,1133.3,5464.4,1116.1,5466.9,1099.5z M5167.5,1133.7
		c-4.1,15.6-6.9,36.7,10.6,44.9c-0.2,0-0.3,0-0.4,0c-0.3,0-0.7,0.1-1,0.1c7.1-0.1,11.4-7.1,13.6-13.1
		C5197.3,1149.9,5184.2,1133.3,5167.5,1133.7z"/>
	<g>
		<path class="st0" d="M5795.6,960.1c2.3,3.4,1.3,7.9,1.7,11.8c0.2,9.9,2.3,19.7,1.9,29.7c0.2,4.3-4.5,7.4-8,4.2
			c-4.3-5.7-6.7-12.7-10.4-18.7c-2.6,5.5-2.2,27.3-12.4,20.5c-2.6-3.2-3-8-4.1-11.8c-1.3-6.4-2.5-12.7-3.7-19
			c-0.7-3.3-1.2-6.8-2.3-10c-0.8-2.3,0.9-4.9,3.1-5.5c5.7-1.3,6.2,5.6,7.1,9.5c1.1,5.2,2.1,10.4,3.1,15.6c1.3-7.5,8.6-15.3,14.8-7.1
			c0.3-5.8,0.3-11.8,1.2-17.5C5788.4,958.2,5793.5,957.2,5795.6,960.1z"/>
		<path class="st0" d="M5727.4,960.6c3.8,12.9,2.9,26.9,6.7,39.8c1.9-10.8,2.2-21.5,3.1-32.3c0.6-5.1,8.4-5.1,8.9,0
			c0.4,12-0.3,24,0.4,36c0.4,3.3-3.1,6.2-6.2,4.7c-3.1,3.8-9,2.9-11.8-0.6c-7.1-9.6-5-22.6-7.4-33.8c0-4.8-5.1-13.6,0.6-16.2
			C5723.7,957.3,5726.4,958.4,5727.4,960.6z"/>
		<path class="st0" d="M5743.5,974.8c0-0.1-0.1-0.1-0.1-0.2c-0.1-0.1-0.2-0.3-0.3-0.4c7.1,9.7-13.6,11.1-19.2,13.6
			c-2.4,0.7-4.9-0.8-5.6-3.1c-0.6-2.4,0.8-4.9,3.2-5.6c4.6-1.3,9.3-2.6,13.9-4.1C5736.9,971.6,5741.9,971.5,5743.5,974.8z"/>
		<path class="st0" d="M5698.6,962.2c0,5.7-0.5,11.5-1,17.2c3.5-1.9,7.1,0.9,8.5,4.1c2.8,5.1,5.9,10.6,9.3,15c5.1,4-1.2,11.6-5.9,7
			c-2.2-0.3-3.9-2.2-3.9-4.5c0-0.2,0-0.4,0-0.5c-0.9-1.3-1.7-2.6-2.5-4c-1.1-1.8-2.1-3.6-3.1-5.4c-2,5-3.2,10.4-4.2,15.5
			c-0.1,1.9-0.5,3.7-2.3,4.7c-2.9,1.8-6.8-0.5-6.8-3.9c0.2-6.1,0.1-12.2,0.8-18.3c0.8-8.9,2.1-17.9,2-26.9
			C5689.7,956.4,5698.4,956.3,5698.6,962.2z"/>
		<path class="st0" d="M5645.8,962.6c1.2,8.1,2.4,16.1,2.4,24.3c5.4-4.2,13.2-6.9,14.7-14.3c0.6-3.5-1.5-7.4,0.7-10.6
			c2.2-3.1,7.7-1.7,8,2.1c0.1,1.7,0.2,3.5,0.3,5.2c0.3,11.6,0.5,23.3,1.4,34.9c-0.3,2.6-3.2,4.6-5.8,3.8c-4.4-1.3-3.6-6.9-3.8-10.5
			c0-3.4-0.4-6.7-0.4-10.1c-4.9,4.2-12.9,6.3-13.5,13.8c-0.5,2.2-0.9,4.4-1.2,6.7c-0.4,4.4-7.1,5.3-8.6,1.1
			c-1.8-14.9,0-30.3-3.2-45.2C5636.1,958.1,5644.9,956.8,5645.8,962.6z"/>
		<path class="st0" d="M5608.7,957.1c10.8,0.6,11.6,9.4,11.4,18.2c0.3,7.5,0.6,14.7,1.1,22c2.2,3.8,3.2,9.5,0.1,13.1
			c-2.2,2.5-6.5,1.2-7.6-1.7c-1.4-4.4-1.2-9.3-1.6-13.8c0,0.1,0,0.1,0,0.2c-0.6-8.7-0.8-17.4-1.2-26.1c-0.1-0.7,0-1.6-0.4-2.2
			c-0.6-0.4-1.5-0.6-2.1-0.7c0,0,0.1,0,0.1,0c0.1,0,0.3,0.1,0.4,0.1c-2.4-0.5-4.7,0.5-6.7,1.6c-2.2,1.1-5-0.2-5.9-2.4
			C5594.2,958.8,5604,956.8,5608.7,957.1z"/>
		<path class="st0" d="M5619.4,980.7c5.5,8.1-7.9,9.7-13.1,11.4c-2.4,0.7-4.9-0.8-5.6-3.2c-1.3-6.5,7.4-6.1,11.5-8
			C5613.9,978.7,5617.5,978.7,5619.4,980.7z"/>
		<path class="st0" d="M5617.3,1004.2c6.1,1.6,4.6,8.9-1.1,9.9c-4.9,0.7-15.5,6-17-1.4c-0.3-7,9-5.1,13.4-7
			C5613.6,1004.4,5615.5,1003.8,5617.3,1004.2z"/>
		<path class="st0" d="M5549.6,962.5c1.6,9.2,4,17.6,4.6,26.9c2.1-6.2,7.6-15.1,15.2-11.3c5,3.1,5.8,9.6,7.9,14.7
			c-0.3-5.9-0.5-11.7-0.4-17.6c0.3-3.8-0.9-9.4,3.2-11.4c3.3-1.5,6.6,1.6,6.7,4.9c1.2,10.1,1.6,20.3,1.7,30.4
			c-0.3,3.1,1.2,7-1.1,9.5c0.6,4.4-4.5,8-7.9,4.6c-7.3-7.1-10.4-17-13.9-26.3c-4.9,7.6-5.7,16.6-8.3,25c-1.1,2.7-4.8,3.6-7.1,1.8
			c-6.5-7.7-3.5-19.2-5.4-28.5c-0.9-7.4-2.9-14.4-4.1-21.5C5539.9,957.8,5548.6,956.6,5549.6,962.5z"/>
		<path class="st0" d="M5493.8,965.7c1.9,1.1,2.6,3.3,2,5.3c1.5,6.8,3,13.6,4.3,20.4c0.4,4.6,3.6,11.2-1,14.5
			c-4.4,2.7-11.6-4.6-7.1-8.6c-1.5-8.5-3.4-16.2-5.1-24.6C5485.4,968.5,5489.5,963.2,5493.8,965.7z"/>
		<path class="st0" d="M5512.6,1002.5c0.3,7.5-10.5,5.6-15.4,6.8c-5.4,0-21.9,3.9-21.3-4.8c1.3-6.3,8.8-2.7,13.2-3.6
			c5.7-0.5,11.4-0.9,17-1.9C5508.8,997.7,5512.3,999.5,5512.6,1002.5z"/>
		<path class="st0" d="M5508.3,958.9c7.6,2.5,2.1,13.4-4.2,8.4c-9.6-0.2-19.2,1.1-28.7,2.2c-2.4,0.3-4.8-1.4-5.1-3.8
			c-0.3-2.4,1.4-4.7,3.9-5.1C5485.4,959.6,5497,957,5508.3,958.9z"/>
		<path class="st0" d="M5431.7,962.4c3,1.5,4.6,4.8,6.5,7.4c6.3,8.8,12,17.9,18.3,26.7c-0.4-6.8-0.8-13.5-0.9-20.3
			c0.1-3.4-0.3-7.6,2.5-10.1c2-2.1,5.7-1.6,7.1,0.9c2.5,5,1.3,11.2,1.6,16.7c0,4.6-0.3,9.3-0.1,13.3c0.1,1.7,0.2,3.5-0.7,5
			c0,0,0,0,0,0c0.1,2.1,0.7,4.6,0,6.7c-0.7,2.5-3.7,4.1-6.1,3c-6.1-3.2-10.2-9.1-14-14.7c-5.1-7.8-10.4-15.5-15.7-23.1
			c0.3,9.1,3.1,18,3.9,27.1c0.4,2.6-1.8,5.2-4.5,5.1c-3.3,0.1-6.2-3.6-4.8-6.7C5424.2,990.1,5413.6,958.6,5431.7,962.4z"/>
		<path class="st0" d="M5387.4,959.4c1.5,5.9,8.3,40.1,1.4,41.5c-0.1,2.5,0.6,5.3-0.8,7.6c-1.8,3.1-6.7,2.9-8-0.5
			c-4.2-10-10.1-19.2-15.4-28.7c-2.9,7.8-4.5,16-6.4,24c-0.2,2.8-2.3,5.5-5.4,5c-2.1-0.3-4-2.3-3.9-4.5c0-5.8-2.2-11.4-2.5-17.1
			c-0.9-6.9-0.5-14.3-3.4-20.8c-8.7-6.7,10.6-20.3,11.8,13.9c1.4-6.4,7.3-16,14.4-9.4c4.3,5,7.1,11.3,10.4,17
			c0.1-9.4-1.7-18.8-0.8-28C5379.8,955,5386.3,955.1,5387.4,959.4z"/>
		<path class="st0" d="M5321.2,953.9c4.6,1.2,19,5.7,15.3,12.3c-1.2,2-4.1,3-6.2,1.6c-4.2-2.5-8.9-5.8-14.1-5.2
			c3.7,11.1,19.2,24.5,12.7,36.6c-3.4,4.4-8.8,8.1-14.6,7.3c-4.9-0.6-5.8-5.8-4.7-9.6c-0.2-2.8,0.8-5.7,3.9-6.1
			c3.3-0.5,5.7,2.6,5.1,5.8c1.1-0.7,2.1-1.6,2.9-2.6c-1.4-12.2-14-20.6-14.5-32.9C5308,954.5,5315.6,952.5,5321.2,953.9z"/>
		<path class="st0" d="M5276.6,960.1c0.4,13.3-3.2,29,5.8,40.2c4-9.4,3.9-19.6,3.9-29.6c0.4-4.4-2.1-12.5,4.5-13
			c2.5,0,4.4,2.1,4.5,4.5c0.1,5.8,0.2,11.6,0.1,17.3c0,3.9,0,7.9,0.1,11.8c0.1,3.8,1.3,9.8-3.9,10.5c-1.9,7-9.6,10.8-15.2,5.1
			c-4.3-4.4-6.7-10.3-7.9-16.2c-2-9.5-1.1-19.3-0.8-28.9c-0.3-2.6,1.1-5.3,3.9-5.7C5273.9,955.9,5276.3,957.7,5276.6,960.1z"/>
		<path class="st0" d="M5293.1,973.5c5.3,1.5,3.7,9.4-1.8,8.8c-4.7-0.5-9.4,0.4-14.1,0.9c-2.4,0.3-4.7-1.4-5.1-3.9
			c-0.3-2.4,1.4-4.8,3.9-5.1C5281.7,973.9,5287.5,972.5,5293.1,973.5z"/>
		<path class="st0" d="M5242.5,967.3c0.3,9.5,0.5,17.8,1.9,26.9c1.2,2.8,1.7,5.8,2,8.9c0.7,5.5-7.3,7.1-8.8,1.8
			c-2.2-7.9-3.2-16.2-3.6-24.1c-0.3-4.5-0.3-9-0.5-13.4c-0.1-2.5,2.1-4.6,4.5-4.6C5240.5,962.8,5242.4,964.9,5242.5,967.3z"/>
		<path class="st0" d="M5254.4,997.1c6.2,0.9,5.5,9.2-0.6,9.6c-5.7,0.6-26.9,6.1-26.1-3.5c0.4-3.4,4.1-4.4,6.8-3.7
			C5241.2,1000,5247.9,998.5,5254.4,997.1z"/>
		<path class="st0" d="M5250.2,953.3c2,0.1,3.8,1.3,4.4,3.3c1.3,5.1-4.7,6.3-8.4,6.9c-5.8,1.3-11.7,2.3-17.6,2.9
			c-5.8,0.7-7.1-8.1-1.2-8.9C5235,956.7,5242.7,955.1,5250.2,953.3z"/>
		<path class="st0" d="M5196.3,961.4c1,10.5,0.4,21.1,2.6,31.5c0.6,3.6,2.6,7.9-0.4,11c-2.5,2.5-6.7,1.1-7.7-2
			c-1.7-2.4-3.6-5.4-0.9-7.9c-2.1-10.2-1.7-21-2.6-31.3C5186.7,956.8,5195.5,955.6,5196.3,961.4z"/>
		<path class="st0" d="M5209.4,1000.1c2.5,8.3-7.9,7.5-13.1,6.8c-4-0.2-7.9-0.4-11.8-0.6c-5.9-0.2-5.9-8.9,0-9
			c5.8,0.2,11.6,0.6,17.3,1C5204,995.6,5208.6,996.7,5209.4,1000.1z"/>
		<path class="st0" d="M5205.9,948.9c4,3.9-2,10.9-6.5,7.7c-8,0.9-15.9,1.6-23.9,2.4c-1.5,0.6-3.3,0.4-4.6-0.7
			c-2.8-2.1-2-7.1,1.6-7.9c8.7-1.3,17.5-1.6,26.2-2.8C5201,947.4,5204.1,947,5205.9,948.9z"/>
	</g>
</g>
<g>
	<path d="M5385.6,4877.6c-0.2-0.2-0.3-0.4-0.5-0.7c-28.6,21.5-70.3,18.3-65.8-25.9c-17.1,26-77.2,62-78.2,7
		c-31.2,40-69.4,32.4-67.3-21.6c-17.3,35-71.1,75.7-93.4,23.3c-4.7,14-15.6,31.7-32.8,28.2c-9.2-2.1-18.6-11.4-16.2-21.5
		c2.6-10.7,17.9-9.5,21.9-0.9c9.6-12.9,11.1-29.9,16.9-44.6c8.2-21.7,19.9-42.6,35-60.2c11.3-14.7,39-5.9,36.3,13.5
		c-1.1,10.2-15.9,12.5-20.6,3.7c-17.6,18.2-20.7,46-20.7,70.2c4.9,34.4,41.9,1.4,50-14.7c23.4-33.5,34.3-73.5,41.9-113.2
		c3-12,4.2-24.8,9.5-36.1c3.5-6.6,13.1-9.4,18.6-3.7c6.2,6.1,3,15,1.1,22.3c-7.9,32.7-38.5,132-20.5,159.1
		c24.8-6.9,36.7-37.7,45.7-59.6c6.1-11.6,4.8-44.2,21.6-42.7c14.8,2.9,7.4,19.4,5.1,29.1c-5.1,25.1-12,51.1-9.9,76.8
		c26.4-4.8,44.4-32.9,55.7-54.9c5-11.1,9.2-22.3,13.1-33.4c2.7-8.4,5.5-21.9,17.2-18.9c14.6,5.2,4.7,22.5,2.6,32.8
		c-4.9,24.4-15.3,51.1-9.2,75.7c11.8,5.9,26.3-4.8,35.7-11.8c-0.3-34.4,6.3-78.5,38.3-97.7c10.4-5.7,23.3,1.2,23.5,13.3
		c2.1,34.9-13.6,68.2-38.3,92.2c19.9,25.1,67.8-25.8,75.2-46c7.8-17.5,17.4-35.5,35.8-43.7c13-7.5,31.9-13.9,42.8,0.4
		c3.1-17.7,22.8-136,43.4-129.6c5,0.7,9.6,5.4,9.3,10.7c-1.9,23-5.5,45-12,66.7c-10.7,41.5-32.1,83.8-24.8,127.3
		c75.9-12.5,59.6-123.5,91.4-102.5c29.5-41.1,72.4,6.1,60.8,43.4c24.3-13.6,42.3-39.3,70.7-44.7c13.3-2.5,49.3-10.4,41.5,13.8
		c-2.8,4.8-8.6,6.4-13.5,4.4c-44-3.7-66.6,40.9-105.2,52.6c-11.3,43.4-75.4,96.3-92,27c-17.8,19.2-67.7,46.9-76,6.5
		c-14.3,25.6-65.6,51.1-73.4,7.9C5454.9,4880.3,5411.4,4908.4,5385.6,4877.6z M5502.4,4859.1c23.2-5.5,35-30,43-50.4
		c-6.2-4.1-7.5-13.3-13.5-17.6c0.1,0.1,0.3,0.2,0.4,0.3c0.1,0.1,0.2,0.2,0.4,0.3C5518.1,4780.2,5483.2,4859.1,5502.4,4859.1z
		 M5656.1,4854.6c18.5-2.4,29.6-21.9,37.3-37.2c-16.3-2.3-31.1-13.4-36.7-28.9C5652.6,4806.5,5635.8,4842.6,5656.1,4854.6z
		 M5401.1,4830.6c10.3-13.6,16.1-30.2,17.3-47.2C5407.8,4796.8,5403.6,4814,5401.1,4830.6z M5700.4,4796.4
		c4.1-15.6,6.9-36.7-10.6-44.9c0.2,0,0.3,0,0.4,0c0.3,0,0.7-0.1,1-0.1c-7.1,0.1-11.4,7.1-13.6,13.1
		C5670.7,4780.3,5683.8,4796.8,5700.4,4796.4z"/>
	<g>
		<path class="st0" d="M5072.4,4970c-2.3-3.4-1.3-7.9-1.7-11.8c-0.2-9.9-2.3-19.7-1.9-29.7c-0.2-4.3,4.5-7.4,8-4.2
			c4.3,5.7,6.7,12.7,10.4,18.7c2.6-5.5,2.2-27.3,12.4-20.5c2.6,3.2,3,8,4.1,11.8c1.3,6.4,2.5,12.7,3.7,19c0.7,3.3,1.2,6.8,2.3,10
			c0.8,2.3-0.9,4.9-3.1,5.5c-5.7,1.3-6.2-5.6-7.1-9.5c-1.1-5.2-2.1-10.4-3.1-15.6c-1.3,7.5-8.6,15.3-14.8,7.1
			c-0.3,5.8-0.3,11.8-1.2,17.5C5079.5,4971.9,5074.5,4972.9,5072.4,4970z"/>
		<path class="st0" d="M5140.6,4969.5c-3.8-12.9-2.9-26.9-6.7-39.8c-1.9,10.8-2.2,21.5-3.1,32.3c-0.6,5.1-8.4,5.1-8.9,0
			c-0.4-12,0.3-24-0.4-36c-0.4-3.3,3.1-6.2,6.2-4.7c3.1-3.8,9-2.9,11.8,0.6c7.1,9.6,5,22.6,7.4,33.8c0,4.8,5.1,13.6-0.6,16.2
			C5144.3,4972.9,5141.6,4971.8,5140.6,4969.5z"/>
		<path class="st0" d="M5124.4,4955.3c0,0.1,0.1,0.1,0.1,0.2c0.1,0.1,0.2,0.3,0.3,0.4c-7.1-9.7,13.6-11.1,19.2-13.6
			c2.4-0.7,4.9,0.8,5.6,3.1c0.6,2.4-0.8,4.9-3.2,5.6c-4.6,1.3-9.3,2.6-13.9,4.1C5131,4958.5,5126,4958.6,5124.4,4955.3z"/>
		<path class="st0" d="M5169.3,4967.9c0-5.7,0.5-11.5,1-17.2c-3.5,1.9-7.1-0.9-8.5-4.1c-2.8-5.1-5.9-10.6-9.3-15
			c-5.1-4,1.2-11.6,5.9-7c2.2,0.3,3.9,2.2,3.9,4.5c0,0.2,0,0.4,0,0.5c0.9,1.3,1.7,2.6,2.5,4c1.1,1.8,2.1,3.6,3.1,5.4
			c2-5,3.2-10.4,4.2-15.5c0.1-1.9,0.5-3.7,2.3-4.7c2.9-1.8,6.8,0.5,6.8,3.9c-0.2,6.1-0.1,12.2-0.8,18.3c-0.8,8.9-2.1,17.9-2,26.9
			C5178.3,4973.8,5169.5,4973.8,5169.3,4967.9z"/>
		<path class="st0" d="M5222.2,4967.5c-1.2-8.1-2.4-16.1-2.4-24.3c-5.4,4.2-13.2,6.9-14.7,14.3c-0.6,3.5,1.5,7.4-0.7,10.6
			c-2.2,3.1-7.7,1.7-8-2.1c-0.1-1.7-0.2-3.5-0.3-5.2c-0.3-11.6-0.5-23.3-1.4-34.9c0.3-2.6,3.2-4.6,5.8-3.8c4.4,1.3,3.6,6.9,3.8,10.5
			c0,3.4,0.4,6.7,0.4,10.1c4.9-4.2,12.9-6.3,13.5-13.8c0.5-2.2,0.9-4.4,1.2-6.7c0.4-4.4,7.1-5.3,8.6-1.1c1.8,14.9,0,30.3,3.2,45.2
			C5231.9,4972.1,5223.1,4973.3,5222.2,4967.5z"/>
		<path class="st0" d="M5259.3,4973.1c-10.8-0.6-11.6-9.4-11.4-18.2c-0.3-7.5-0.6-14.7-1.1-22c-2.2-3.8-3.2-9.5-0.1-13.1
			c2.2-2.5,6.5-1.2,7.6,1.7c1.4,4.4,1.2,9.3,1.6,13.8c0-0.1,0-0.1,0-0.2c0.6,8.7,0.8,17.4,1.2,26.1c0.1,0.7,0,1.6,0.4,2.2
			c0.6,0.4,1.5,0.6,2.1,0.7c0,0-0.1,0-0.1,0c-0.1,0-0.3-0.1-0.4-0.1c2.4,0.5,4.7-0.5,6.7-1.6c2.2-1.1,5,0.2,5.9,2.4
			C5273.8,4971.4,5264,4973.3,5259.3,4973.1z"/>
		<path class="st0" d="M5248.6,4949.4c-5.5-8.1,7.9-9.7,13.1-11.4c2.4-0.7,4.9,0.8,5.6,3.2c1.3,6.5-7.4,6.1-11.5,8
			C5254,4951.4,5250.5,4951.4,5248.6,4949.4z"/>
		<path class="st0" d="M5250.7,4925.9c-6.1-1.6-4.6-8.9,1.1-9.9c4.9-0.7,15.5-6,17,1.4c0.3,7-9,5.1-13.4,7
			C5254.4,4925.7,5252.4,4926.3,5250.7,4925.9z"/>
		<path class="st0" d="M5318.4,4967.7c-1.6-9.2-4-17.6-4.6-26.9c-2.1,6.2-7.6,15.1-15.2,11.3c-5-3.1-5.8-9.6-7.9-14.7
			c0.3,5.9,0.5,11.7,0.4,17.6c-0.3,3.8,0.9,9.4-3.2,11.4c-3.3,1.5-6.6-1.6-6.7-4.9c-1.2-10.1-1.6-20.3-1.7-30.4
			c0.3-3.1-1.2-7,1.1-9.5c-0.6-4.4,4.5-8,7.9-4.6c7.3,7.1,10.4,17,13.9,26.3c4.9-7.6,5.7-16.6,8.3-25c1.1-2.7,4.8-3.6,7.1-1.8
			c6.5,7.7,3.5,19.2,5.4,28.5c0.9,7.4,2.9,14.4,4.1,21.5C5328,4972.3,5319.4,4973.6,5318.4,4967.7z"/>
		<path class="st0" d="M5374.2,4964.5c-1.9-1.1-2.6-3.3-2-5.3c-1.5-6.8-3-13.6-4.3-20.4c-0.4-4.6-3.6-11.2,1-14.5
			c4.4-2.7,11.6,4.6,7.1,8.6c1.5,8.5,3.4,16.2,5.1,24.6C5382.6,4961.6,5378.5,4967,5374.2,4964.5z"/>
		<path class="st0" d="M5355.3,4927.6c-0.3-7.5,10.5-5.6,15.4-6.8c5.4,0,21.9-3.9,21.3,4.8c-1.3,6.3-8.8,2.7-13.2,3.6
			c-5.7,0.5-11.4,0.9-17,1.9C5359.2,4932.5,5355.7,4930.6,5355.3,4927.6z"/>
		<path class="st0" d="M5359.7,4971.3c-7.6-2.5-2.1-13.4,4.2-8.4c9.6,0.2,19.2-1.1,28.7-2.2c2.4-0.3,4.8,1.4,5.1,3.8
			c0.3,2.4-1.4,4.7-3.9,5.1C5382.6,4970.6,5371,4973.2,5359.7,4971.3z"/>
		<path class="st0" d="M5436.3,4967.8c-3-1.5-4.6-4.8-6.5-7.4c-6.3-8.8-12-17.9-18.3-26.7c0.4,6.8,0.8,13.5,0.9,20.3
			c-0.1,3.4,0.3,7.6-2.5,10.1c-2,2.1-5.7,1.6-7.1-0.9c-2.5-5-1.3-11.2-1.6-16.7c0-4.6,0.3-9.3,0.1-13.3c-0.1-1.7-0.2-3.5,0.7-5
			c0,0,0,0,0,0c-0.1-2.1-0.7-4.6,0-6.7c0.7-2.5,3.7-4.1,6.1-3c6.1,3.2,10.2,9.1,14,14.7c5.1,7.8,10.4,15.5,15.7,23.1
			c-0.3-9.1-3.1-18-3.9-27.1c-0.4-2.6,1.8-5.2,4.5-5.1c3.3-0.1,6.2,3.6,4.8,6.7C5443.7,4940,5454.4,4971.6,5436.3,4967.8z"/>
		<path class="st0" d="M5480.6,4970.8c-1.5-5.9-8.3-40.1-1.4-41.5c0.1-2.5-0.6-5.3,0.8-7.6c1.8-3.1,6.7-2.9,8,0.5
			c4.2,10,10.1,19.2,15.4,28.7c2.9-7.8,4.5-16,6.4-24c0.2-2.8,2.3-5.5,5.4-5c2.1,0.3,4,2.3,3.9,4.5c0,5.8,2.2,11.4,2.5,17.1
			c0.9,6.9,0.5,14.3,3.4,20.8c8.7,6.7-10.6,20.3-11.8-13.9c-1.4,6.4-7.3,16-14.4,9.4c-4.3-5-7.1-11.3-10.4-17
			c-0.1,9.4,1.7,18.8,0.8,28C5488.2,4975.1,5481.7,4975.1,5480.6,4970.8z"/>
		<path class="st0" d="M5546.8,4976.2c-4.6-1.2-19-5.7-15.3-12.3c1.2-2,4.1-3,6.2-1.6c4.2,2.5,8.9,5.8,14.1,5.2
			c-3.7-11.1-19.2-24.5-12.7-36.6c3.5-4.4,8.8-8.1,14.6-7.3c4.9,0.6,5.9,5.8,4.7,9.6c0.2,2.8-0.8,5.7-3.9,6.1
			c-3.3,0.5-5.7-2.6-5.1-5.8c-1.1,0.7-2.1,1.6-2.9,2.6c1.4,12.2,14,20.6,14.5,32.9C5560,4975.6,5552.4,4977.6,5546.8,4976.2z"/>
		<path class="st0" d="M5591.4,4970c-0.4-13.3,3.2-29-5.8-40.2c-4,9.4-3.9,19.6-3.9,29.6c-0.4,4.4,2.1,12.5-4.5,13
			c-2.5,0-4.4-2.1-4.5-4.5c-0.1-5.8-0.2-11.6-0.1-17.4c0-3.9,0-7.9-0.1-11.8c-0.1-3.8-1.3-9.8,3.9-10.5c1.9-7,9.6-10.8,15.2-5.1
			c4.3,4.4,6.7,10.3,7.9,16.2c2,9.5,1.1,19.3,0.8,28.9c0.3,2.6-1.1,5.3-3.9,5.7C5594.1,4974.2,5591.7,4972.5,5591.4,4970z"/>
		<path class="st0" d="M5574.8,4956.6c-5.3-1.5-3.7-9.4,1.8-8.8c4.7,0.5,9.4-0.4,14.1-0.9c2.4-0.3,4.7,1.4,5.1,3.9
			c0.3,2.4-1.4,4.8-3.9,5.1C5586.3,4956.3,5580.5,4957.6,5574.8,4956.6z"/>
		<path class="st0" d="M5625.5,4962.8c-0.3-9.5-0.5-17.8-1.9-26.9c-1.2-2.8-1.7-5.8-2-8.9c-0.7-5.5,7.3-7.1,8.8-1.8
			c2.2,7.9,3.2,16.2,3.6,24.1c0.3,4.5,0.3,9,0.5,13.4c0.1,2.5-2.1,4.6-4.5,4.6C5627.5,4967.3,5625.6,4965.2,5625.5,4962.8z"/>
		<path class="st0" d="M5613.6,4933c-6.2-0.9-5.5-9.2,0.6-9.6c5.7-0.6,26.9-6.1,26.1,3.5c-0.4,3.4-4.1,4.4-6.8,3.7
			C5626.7,4930.1,5620,4931.6,5613.6,4933z"/>
		<path class="st0" d="M5617.8,4976.9c-2-0.1-3.8-1.3-4.4-3.3c-1.3-5.1,4.7-6.3,8.4-6.9c5.8-1.3,11.7-2.3,17.6-2.9
			c5.8-0.7,7.1,8.1,1.2,8.9C5632.9,4973.5,5625.3,4975,5617.8,4976.9z"/>
		<path class="st0" d="M5671.6,4968.7c-1-10.5-0.4-21.1-2.6-31.5c-0.6-3.6-2.6-7.9,0.4-11c2.5-2.5,6.7-1.1,7.7,2
			c1.7,2.4,3.6,5.4,0.9,7.9c2.1,10.2,1.7,21,2.6,31.3C5681.3,4973.3,5672.5,4974.6,5671.6,4968.7z"/>
		<path class="st0" d="M5658.6,4930.1c-2.5-8.3,7.9-7.5,13.1-6.8c4,0.2,7.9,0.4,11.8,0.6c5.9,0.2,5.9,8.9,0,9
			c-5.8-0.2-11.6-0.6-17.3-1C5664,4934.5,5659.4,4933.4,5658.6,4930.1z"/>
		<path class="st0" d="M5662.1,4981.2c-4-3.9,2-10.9,6.5-7.7c8-0.9,15.9-1.6,23.9-2.4c1.5-0.6,3.3-0.4,4.6,0.7
			c2.8,2.1,2,7.1-1.6,7.9c-8.7,1.3-17.5,1.6-26.2,2.8C5666.9,4982.8,5663.8,4983.2,5662.1,4981.2z"/>
	</g>
</g>
<rect x="4463.9" y="587" transform="matrix(-1.836970e-16 1 -1 -1.836970e-16 5735.9697 -3551.1899)" class="st1" width="359.3" height="1010.8"/>
</svg>
